<?xml version="1.0" standalone="no"?>
 <!DOCTYPE svg PUBLIC "-//W3C//DTD SVG 1.1//EN" 
 "http://www.w3.org/Graphics/SVG/1.1/DTD/svg11.dtd"> 
<svg
  xmlns:svg="http://www.w3.org/2000/svg"
  xmlns="http://www.w3.org/2000/svg"
  xmlns:xlink="http://www.w3.org/1999/xlink"
  version="1.1"
  width="27.940000cm" height="21.590000cm" viewBox="0 0 110000 85000">
<title>SVG Picture created as Double Balanced Mixer-F_Cu.svg date 2021/02/22 19:53:37 </title>
  <desc>Picture generated by PCBNEW </desc>
<g style="fill:#000000; fill-opacity:1;stroke:#000000; stroke-opacity:1;
stroke-linecap:round; stroke-linejoin:round;"
 transform="translate(0 0) scale(1 1)">
</g>
<g style="fill:#000000; fill-opacity:0.0; 
stroke:#000000; stroke-width:-0.000393701; stroke-opacity:1; 
stroke-linecap:round; stroke-linejoin:round;">
</g>
<g style="fill:#000000; fill-opacity:0.0; 
stroke:#000000; stroke-width:98.4252; stroke-opacity:1; 
stroke-linecap:round; stroke-linejoin:round;">
<text x="50960" y="41662.8"
textLength="5898.01" font-size="682.415" lengthAdjust="spacingAndGlyphs"
text-anchor="middle" opacity="0">Balanced Mixer</text>
<path d="M53616 41370
L53543 41394
L53519 41419
L53494 41467
L53494 41540
L53519 41589
L53543 41614
L53592 41638
L53787 41638
L53787 41126
L53616 41126
L53567 41151
L53543 41175
L53519 41224
L53519 41272
L53543 41321
L53567 41345
L53616 41370
L53787 41370
" />
<path d="M53055 41638
L53055 41370
L53080 41321
L53129 41297
L53226 41297
L53275 41321
" />
<path d="M53055 41614
L53104 41638
L53226 41638
L53275 41614
L53299 41565
L53299 41516
L53275 41467
L53226 41443
L53104 41443
L53055 41419
" />
<path d="M52739 41638
L52787 41614
L52812 41565
L52812 41126
" />
<path d="M52324 41638
L52324 41370
L52349 41321
L52397 41297
L52495 41297
L52544 41321
" />
<path d="M52324 41614
L52373 41638
L52495 41638
L52544 41614
L52568 41565
L52568 41516
L52544 41467
L52495 41443
L52373 41443
L52324 41419
" />
<path d="M52081 41297
L52081 41638
" />
<path d="M52081 41345
L52056 41321
L52007 41297
L51934 41297
L51886 41321
L51861 41370
L51861 41638
" />
<path d="M51398 41614
L51447 41638
L51544 41638
L51593 41614
L51618 41589
L51642 41540
L51642 41394
L51618 41345
L51593 41321
L51544 41297
L51447 41297
L51398 41321
" />
<path d="M50984 41614
L51033 41638
L51130 41638
L51179 41614
L51203 41565
L51203 41370
L51179 41321
L51130 41297
L51033 41297
L50984 41321
L50960 41370
L50960 41419
L51203 41467
" />
<path d="M50521 41638
L50521 41126
" />
<path d="M50521 41614
L50570 41638
L50667 41638
L50716 41614
L50740 41589
L50765 41540
L50765 41394
L50740 41345
L50716 41321
L50667 41297
L50570 41297
L50521 41321
" />
<path d="M49887 41638
L49887 41126
L49717 41492
L49546 41126
L49546 41638
" />
<path d="M49302 41638
L49302 41297
" />
<path d="M49302 41126
L49327 41151
L49302 41175
L49278 41151
L49302 41126
L49302 41175
" />
<path d="M49107 41638
L48839 41297
" />
<path d="M49107 41297
L48839 41638
" />
<path d="M48449 41614
L48498 41638
L48595 41638
L48644 41614
L48669 41565
L48669 41370
L48644 41321
L48595 41297
L48498 41297
L48449 41321
L48425 41370
L48425 41419
L48669 41467
" />
<path d="M48205 41638
L48205 41297
" />
<path d="M48205 41394
L48181 41345
L48157 41321
L48108 41297
L48059 41297
" />
<text x="50960" y="42529"
textLength="4563.65" font-size="682.415" lengthAdjust="spacingAndGlyphs"
text-anchor="middle" opacity="0">WC8C 2021</text>
<path d="M53104 41992
L52982 42504
L52885 42139
L52787 42504
L52666 41992
" />
<path d="M52178 42455
L52202 42480
L52276 42504
L52324 42504
L52397 42480
L52446 42431
L52471 42382
L52495 42285
L52495 42212
L52471 42114
L52446 42065
L52397 42017
L52324 41992
L52276 41992
L52202 42017
L52178 42041
" />
<path d="M51886 42212
L51934 42187
L51959 42163
L51983 42114
L51983 42090
L51959 42041
L51934 42017
L51886 41992
L51788 41992
L51739 42017
L51715 42041
L51691 42090
L51691 42114
L51715 42163
L51739 42187
L51788 42212
L51886 42212
L51934 42236
L51959 42260
L51983 42309
L51983 42407
L51959 42455
L51934 42480
L51886 42504
L51788 42504
L51739 42480
L51715 42455
L51691 42407
L51691 42309
L51715 42260
L51739 42236
L51788 42212
" />
<path d="M51179 42455
L51203 42480
L51276 42504
L51325 42504
L51398 42480
L51447 42431
L51471 42382
L51496 42285
L51496 42212
L51471 42114
L51447 42065
L51398 42017
L51325 41992
L51276 41992
L51203 42017
L51179 42041
" />
<path d="M50594 42041
L50570 42017
L50521 41992
L50399 41992
L50350 42017
L50326 42041
L50301 42090
L50301 42139
L50326 42212
L50618 42504
L50301 42504
" />
<path d="M49985 41992
L49936 41992
L49887 42017
L49863 42041
L49838 42090
L49814 42187
L49814 42309
L49838 42407
L49863 42455
L49887 42480
L49936 42504
L49985 42504
L50033 42480
L50058 42455
L50082 42407
L50106 42309
L50106 42187
L50082 42090
L50058 42041
L50033 42017
L49985 41992
" />
<path d="M49619 42041
L49595 42017
L49546 41992
L49424 41992
L49375 42017
L49351 42041
L49327 42090
L49327 42139
L49351 42212
L49643 42504
L49327 42504
" />
<path d="M48839 42504
L49132 42504
" />
<path d="M48985 42504
L48985 41992
L49034 42065
L49083 42114
L49132 42139
" />
</g>
<g style="fill:#000000; fill-opacity:0.0; 
stroke:#000000; stroke-width:157.48; stroke-opacity:1; 
stroke-linecap:round; stroke-linejoin:round;">
<text x="50800" y="31593.7"
textLength="1177.82" font-size="1049.87" lengthAdjust="spacingAndGlyphs"
text-anchor="middle" opacity="0">IF</text>
<path d="M51137 31556
L51137 30768
" />
<path d="M50500 31143
L50762 31143
" />
<path d="M50762 31556
L50762 30768
L50387 30768
" />
<text x="41600" y="34993.7"
textLength="1667.04" font-size="1049.87" lengthAdjust="spacingAndGlyphs"
text-anchor="middle" opacity="0">RF</text>
<path d="M41693 34956
L41956 34581
" />
<path d="M42143 34956
L42143 34168
L41843 34168
L41768 34206
L41731 34243
L41693 34318
L41693 34431
L41731 34506
L41768 34543
L41843 34581
L42143 34581
" />
<path d="M41093 34543
L41356 34543
" />
<path d="M41356 34956
L41356 34168
L40981 34168
" />
<text x="61200" y="39793.7"
textLength="1667.04" font-size="1049.87" lengthAdjust="spacingAndGlyphs"
text-anchor="middle" opacity="0">LO</text>
<path d="M61368 39756
L61743 39756
L61743 38968
" />
<path d="M60956 38968
L60806 38968
L60731 39006
L60656 39081
L60618 39231
L60618 39493
L60656 39643
L60731 39718
L60806 39756
L60956 39756
L61031 39718
L61106 39643
L61143 39493
L61143 39231
L61106 39081
L61031 39006
L60956 38968
" />
<g >
</g>
<g >
</g>
<g >
</g>
<g >
</g>
<g >
</g>
<g style="fill:#000000; fill-opacity:0.0; 
stroke:#000000; stroke-width:157.48; stroke-opacity:1; 
stroke-linecap:round; stroke-linejoin:round;">
</g>
<g style="fill:#000000; fill-opacity:1.0; 
stroke:#000000; stroke-width:0; stroke-opacity:1; 
stroke-linecap:round; stroke-linejoin:round;">
<circle cx="46400" cy="35400" r="334.646" /> 
</g>
<g style="fill:#000000; fill-opacity:1.0; 
stroke:#000000; stroke-width:39.3701; stroke-opacity:1; 
stroke-linecap:round; stroke-linejoin:round;">
</g>
<g style="fill:#000000; fill-opacity:1.0; 
stroke:#000000; stroke-width:0; stroke-opacity:1; 
stroke-linecap:round; stroke-linejoin:round;">
<circle cx="44400" cy="35400" r="334.646" /> 
</g>
<g style="fill:#000000; fill-opacity:1.0; 
stroke:#000000; stroke-width:39.3701; stroke-opacity:1; 
stroke-linecap:round; stroke-linejoin:round;">
</g>
<g style="fill:#000000; fill-opacity:1.0; 
stroke:#000000; stroke-width:0; stroke-opacity:1; 
stroke-linecap:round; stroke-linejoin:round;">
<circle cx="46400" cy="36650" r="334.646" /> 
</g>
<g style="fill:#000000; fill-opacity:1.0; 
stroke:#000000; stroke-width:39.3701; stroke-opacity:1; 
stroke-linecap:round; stroke-linejoin:round;">
</g>
<g style="fill:#000000; fill-opacity:1.0; 
stroke:#000000; stroke-width:0; stroke-opacity:1; 
stroke-linecap:round; stroke-linejoin:round;">
<circle cx="44400" cy="36650" r="334.646" /> 
</g>
<g style="fill:#000000; fill-opacity:1.0; 
stroke:#000000; stroke-width:39.3701; stroke-opacity:1; 
stroke-linecap:round; stroke-linejoin:round;">
</g>
<g style="fill:#000000; fill-opacity:1.0; 
stroke:#000000; stroke-width:0; stroke-opacity:1; 
stroke-linecap:round; stroke-linejoin:round;">
<circle cx="46400" cy="37900" r="334.646" /> 
</g>
<g style="fill:#000000; fill-opacity:1.0; 
stroke:#000000; stroke-width:39.3701; stroke-opacity:1; 
stroke-linecap:round; stroke-linejoin:round;">
</g>
<g style="fill:#000000; fill-opacity:1.0; 
stroke:#000000; stroke-width:0; stroke-opacity:1; 
stroke-linecap:round; stroke-linejoin:round;">
<circle cx="44400" cy="37900" r="334.646" /> 
</g>
<g style="fill:#000000; fill-opacity:1.0; 
stroke:#000000; stroke-width:39.3701; stroke-opacity:1; 
stroke-linecap:round; stroke-linejoin:round;">
</g>
<g >
</g>
<g style="fill:#000000; fill-opacity:1.0; 
stroke:#000000; stroke-width:39.3701; stroke-opacity:1; 
stroke-linecap:round; stroke-linejoin:round;">
</g>
<g style="fill:#000000; fill-opacity:1.0; 
stroke:#000000; stroke-width:0; stroke-opacity:1; 
stroke-linecap:round; stroke-linejoin:round;">
<circle cx="51000" cy="38100" r="334.646" /> 
</g>
<g style="fill:#000000; fill-opacity:1.0; 
stroke:#000000; stroke-width:39.3701; stroke-opacity:1; 
stroke-linecap:round; stroke-linejoin:round;">
</g>
<g style="fill:#000000; fill-opacity:1.0; 
stroke:#000000; stroke-width:0; stroke-opacity:1; 
stroke-linecap:round; stroke-linejoin:round;">
<circle cx="53000" cy="38100" r="334.646" /> 
</g>
<g style="fill:#000000; fill-opacity:1.0; 
stroke:#000000; stroke-width:39.3701; stroke-opacity:1; 
stroke-linecap:round; stroke-linejoin:round;">
</g>
<g style="fill:#000000; fill-opacity:1.0; 
stroke:#000000; stroke-width:0; stroke-opacity:1; 
stroke-linecap:round; stroke-linejoin:round;">
<circle cx="51000" cy="36850" r="334.646" /> 
</g>
<g style="fill:#000000; fill-opacity:1.0; 
stroke:#000000; stroke-width:39.3701; stroke-opacity:1; 
stroke-linecap:round; stroke-linejoin:round;">
</g>
<g style="fill:#000000; fill-opacity:1.0; 
stroke:#000000; stroke-width:0; stroke-opacity:1; 
stroke-linecap:round; stroke-linejoin:round;">
<circle cx="53000" cy="36850" r="334.646" /> 
</g>
<g style="fill:#000000; fill-opacity:1.0; 
stroke:#000000; stroke-width:39.3701; stroke-opacity:1; 
stroke-linecap:round; stroke-linejoin:round;">
</g>
<g style="fill:#000000; fill-opacity:1.0; 
stroke:#000000; stroke-width:0; stroke-opacity:1; 
stroke-linecap:round; stroke-linejoin:round;">
<circle cx="51000" cy="35600" r="334.646" /> 
</g>
<g style="fill:#000000; fill-opacity:1.0; 
stroke:#000000; stroke-width:39.3701; stroke-opacity:1; 
stroke-linecap:round; stroke-linejoin:round;">
</g>
<g style="fill:#000000; fill-opacity:1.0; 
stroke:#000000; stroke-width:0; stroke-opacity:1; 
stroke-linecap:round; stroke-linejoin:round;">
<circle cx="53000" cy="35600" r="334.646" /> 
</g>
<g style="fill:#000000; fill-opacity:1.0; 
stroke:#000000; stroke-width:39.3701; stroke-opacity:1; 
stroke-linecap:round; stroke-linejoin:round;">
</g>
<g >
</g>
<g style="fill:#000000; fill-opacity:1.0; 
stroke:#000000; stroke-width:39.3701; stroke-opacity:1; 
stroke-linecap:round; stroke-linejoin:round;">
</g>
<g style="fill:#000000; fill-opacity:1.0; 
stroke:#000000; stroke-width:0; stroke-opacity:1; 
stroke-linecap:round; stroke-linejoin:round;">
<circle cx="42675.2" cy="39250" r="190.945" /> 
</g>
<g style="fill:#000000; fill-opacity:1.0; 
stroke:#000000; stroke-width:39.3701; stroke-opacity:1; 
stroke-linecap:round; stroke-linejoin:round;">
</g>
<g style="fill:#000000; fill-opacity:1.0; 
stroke:#000000; stroke-width:0; stroke-opacity:1; 
stroke-linecap:round; stroke-linejoin:round;">
<path style="fill:#000000; fill-opacity:1.0; 
stroke:#000000; stroke-width:0; stroke-opacity:1; 
stroke-linecap:round; stroke-linejoin:round;fill-rule:evenodd;"
d="M 42675.2,39340.6
42675.2,39159.4
42324.8,39159.4
42324.8,39340.6
Z" /> 
<path style="fill:#000000; fill-opacity:1.0; 
stroke:#000000; stroke-width:0; stroke-opacity:1; 
stroke-linecap:round; stroke-linejoin:round;fill-rule:evenodd;"
d="M 42324.8,37024.6
42324.8,35975.4
40675.2,35975.4
40675.2,37024.6
Z" /> 
<path style="fill:#000000; fill-opacity:1.0; 
stroke:#000000; stroke-width:0; stroke-opacity:1; 
stroke-linecap:round; stroke-linejoin:round;fill-rule:evenodd;"
d="M 42324.8,38225.4
42324.8,37524.6
40675.2,37524.6
40675.2,38225.4
Z" /> 
<path style="fill:#000000; fill-opacity:1.0; 
stroke:#000000; stroke-width:0; stroke-opacity:1; 
stroke-linecap:round; stroke-linejoin:round;fill-rule:evenodd;"
d="M 42324.8,39774.6
42324.8,38725.4
40675.2,38725.4
40675.2,39774.6
Z" /> 
<circle cx="42675.2" cy="36500" r="190.945" /> 
</g>
<g style="fill:#000000; fill-opacity:1.0; 
stroke:#000000; stroke-width:39.3701; stroke-opacity:1; 
stroke-linecap:round; stroke-linejoin:round;">
</g>
<g style="fill:#000000; fill-opacity:1.0; 
stroke:#000000; stroke-width:0; stroke-opacity:1; 
stroke-linecap:round; stroke-linejoin:round;">
<path style="fill:#000000; fill-opacity:1.0; 
stroke:#000000; stroke-width:0; stroke-opacity:1; 
stroke-linecap:round; stroke-linejoin:round;fill-rule:evenodd;"
d="M 42675.2,36590.6
42675.2,36409.4
42324.8,36409.4
42324.8,36590.6
Z" /> 
</g>
<g >
</g>
<g style="fill:#000000; fill-opacity:1.0; 
stroke:#000000; stroke-width:0; stroke-opacity:1; 
stroke-linecap:round; stroke-linejoin:round;">
<circle cx="60295.8" cy="34695" r="190.945" /> 
</g>
<g style="fill:#000000; fill-opacity:1.0; 
stroke:#000000; stroke-width:39.3701; stroke-opacity:1; 
stroke-linecap:round; stroke-linejoin:round;">
</g>
<g style="fill:#000000; fill-opacity:1.0; 
stroke:#000000; stroke-width:0; stroke-opacity:1; 
stroke-linecap:round; stroke-linejoin:round;">
<path style="fill:#000000; fill-opacity:1.0; 
stroke:#000000; stroke-width:0; stroke-opacity:1; 
stroke-linecap:round; stroke-linejoin:round;fill-rule:evenodd;"
d="M 60295.8,34604.4
60295.8,34785.6
60646.2,34785.6
60646.2,34604.4
Z" /> 
<path style="fill:#000000; fill-opacity:1.0; 
stroke:#000000; stroke-width:0; stroke-opacity:1; 
stroke-linecap:round; stroke-linejoin:round;fill-rule:evenodd;"
d="M 60646.2,36920.4
60646.2,37969.6
62295.8,37969.6
62295.8,36920.4
Z" /> 
<path style="fill:#000000; fill-opacity:1.0; 
stroke:#000000; stroke-width:0; stroke-opacity:1; 
stroke-linecap:round; stroke-linejoin:round;fill-rule:evenodd;"
d="M 60646.2,35719.6
60646.2,36420.4
62295.8,36420.4
62295.8,35719.6
Z" /> 
<path style="fill:#000000; fill-opacity:1.0; 
stroke:#000000; stroke-width:0; stroke-opacity:1; 
stroke-linecap:round; stroke-linejoin:round;fill-rule:evenodd;"
d="M 60646.2,34170.4
60646.2,35219.6
62295.8,35219.6
62295.8,34170.4
Z" /> 
<circle cx="60295.8" cy="37445" r="190.945" /> 
</g>
<g style="fill:#000000; fill-opacity:1.0; 
stroke:#000000; stroke-width:39.3701; stroke-opacity:1; 
stroke-linecap:round; stroke-linejoin:round;">
</g>
<g style="fill:#000000; fill-opacity:1.0; 
stroke:#000000; stroke-width:0; stroke-opacity:1; 
stroke-linecap:round; stroke-linejoin:round;">
<path style="fill:#000000; fill-opacity:1.0; 
stroke:#000000; stroke-width:0; stroke-opacity:1; 
stroke-linecap:round; stroke-linejoin:round;fill-rule:evenodd;"
d="M 60295.8,37354.4
60295.8,37535.6
60646.2,37535.6
60646.2,37354.4
Z" /> 
</g>
<g >
</g>
<g style="fill:#000000; fill-opacity:1.0; 
stroke:#000000; stroke-width:0; stroke-opacity:1; 
stroke-linecap:round; stroke-linejoin:round;">
<path style="fill:#000000; fill-opacity:1.0; 
stroke:#000000; stroke-width:0; stroke-opacity:1; 
stroke-linecap:round; stroke-linejoin:round;fill-rule:evenodd;"
d="M 54631.3,37008
54621.7,37009.5
54612.4,37011.8
54603.3,37015.1
54594.5,37019.2
54586.3,37024.2
54578.5,37029.9
54571.3,37036.4
54564.9,37043.6
54559.1,37051.3
54554.1,37059.6
54550,37068.3
54546.8,37077.4
54544.4,37086.8
54543,37096.3
54542.5,37106
54542.5,37421
54543,37430.6
54544.4,37440.2
54546.8,37449.5
54550,37458.6
54554.1,37467.3
54559.1,37475.6
54564.9,37483.4
54571.3,37490.6
54578.5,37497
54586.3,37502.8
54594.5,37507.8
54603.3,37511.9
54612.4,37515.1
54621.7,37517.5
54631.3,37518.9
54640.9,37519.4
55133.1,37519.4
55142.7,37518.9
55152.3,37517.5
55161.6,37515.1
55170.7,37511.9
55179.5,37507.8
55187.7,37502.8
55195.5,37497
55202.7,37490.6
55209.1,37483.4
55214.9,37475.6
55219.9,37467.3
55224,37458.6
55227.2,37449.5
55229.6,37440.2
55231,37430.6
55231.5,37421
55231.5,37106
55231,37096.3
55229.6,37086.8
55227.2,37077.4
55224,37068.3
55219.9,37059.6
55214.9,37051.3
55209.1,37043.6
55202.7,37036.4
55195.5,37029.9
55187.7,37024.2
55179.5,37019.2
55170.7,37015.1
55161.6,37011.8
55152.3,37009.5
55142.7,37008
55133.1,37007.6
54640.9,37007.6
Z" /> 
<path style="fill:#000000; fill-opacity:1.0; 
stroke:#000000; stroke-width:0; stroke-opacity:1; 
stroke-linecap:round; stroke-linejoin:round;fill-rule:evenodd;"
d="M 54631.3,35787.6
54621.7,35789
54612.4,35791.3
54603.3,35794.6
54594.5,35798.7
54586.3,35803.7
54578.5,35809.4
54571.3,35815.9
54564.9,35823.1
54559.1,35830.8
54554.1,35839.1
54550,35847.9
54546.8,35856.9
54544.4,35866.3
54543,35875.9
54542.5,35885.5
54542.5,36200.5
54543,36210.1
54544.4,36219.7
54546.8,36229.1
54550,36238.1
54554.1,36246.9
54559.1,36255.2
54564.9,36262.9
54571.3,36270.1
54578.5,36276.6
54586.3,36282.3
54594.5,36287.3
54603.3,36291.4
54612.4,36294.7
54621.7,36297
54631.3,36298.4
54640.9,36298.9
55133.1,36298.9
55142.7,36298.4
55152.3,36297
55161.6,36294.7
55170.7,36291.4
55179.5,36287.3
55187.7,36282.3
55195.5,36276.6
55202.7,36270.1
55209.1,36262.9
55214.9,36255.2
55219.9,36246.9
55224,36238.1
55227.2,36229.1
55229.6,36219.7
55231,36210.1
55231.5,36200.5
55231.5,35885.5
55231,35875.9
55229.6,35866.3
55227.2,35856.9
55224,35847.9
55219.9,35839.1
55214.9,35830.8
55209.1,35823.1
55202.7,35815.9
55195.5,35809.4
55187.7,35803.7
55179.5,35798.7
55170.7,35794.6
55161.6,35791.3
55152.3,35789
55142.7,35787.6
55133.1,35787.1
54640.9,35787.1
Z" /> 
</g>
<g >
</g>
<g style="fill:#000000; fill-opacity:1.0; 
stroke:#000000; stroke-width:0; stroke-opacity:1; 
stroke-linecap:round; stroke-linejoin:round;">
<path style="fill:#000000; fill-opacity:1.0; 
stroke:#000000; stroke-width:0; stroke-opacity:1; 
stroke-linecap:round; stroke-linejoin:round;fill-rule:evenodd;"
d="M 57321.3,35699
57311.8,35700.4
57302.4,35702.8
57293.3,35706
57284.6,35710.1
57276.3,35715.1
57268.6,35720.9
57261.4,35727.3
57254.9,35734.5
57249.2,35742.3
57244.2,35750.5
57240.1,35759.3
57236.8,35768.4
57234.5,35777.7
57233,35787.3
57232.6,35796.9
57232.6,36289.1
57233,36298.7
57234.5,36308.3
57236.8,36317.6
57240.1,36326.7
57244.2,36335.5
57249.2,36343.7
57254.9,36351.5
57261.4,36358.7
57268.6,36365.1
57276.3,36370.9
57284.6,36375.9
57293.3,36380
57302.4,36383.2
57311.8,36385.6
57321.3,36387
57331,36387.5
57646,36387.5
57655.6,36387
57665.2,36385.6
57674.5,36383.2
57683.6,36380
57692.3,36375.9
57700.6,36370.9
57708.4,36365.1
57715.5,36358.7
57722,36351.5
57727.8,36343.7
57732.8,36335.5
57736.9,36326.7
57740.1,36317.6
57742.5,36308.3
57743.9,36298.7
57744.4,36289.1
57744.4,35796.9
57743.9,35787.3
57742.5,35777.7
57740.1,35768.4
57736.9,35759.3
57732.8,35750.5
57727.8,35742.3
57722,35734.5
57715.5,35727.3
57708.4,35720.9
57700.6,35715.1
57692.3,35710.1
57683.6,35706
57674.5,35702.8
57665.2,35700.4
57655.6,35699
57646,35698.5
57331,35698.5
Z" /> 
<path style="fill:#000000; fill-opacity:1.0; 
stroke:#000000; stroke-width:0; stroke-opacity:1; 
stroke-linecap:round; stroke-linejoin:round;fill-rule:evenodd;"
d="M 56100.9,35699
56091.3,35700.4
56081.9,35702.8
56072.9,35706
56064.1,35710.1
56055.8,35715.1
56048.1,35720.9
56040.9,35727.3
56034.4,35734.5
56028.7,35742.3
56023.7,35750.5
56019.6,35759.3
56016.3,35768.4
56014,35777.7
56012.6,35787.3
56012.1,35796.9
56012.1,36289.1
56012.6,36298.7
56014,36308.3
56016.3,36317.6
56019.6,36326.7
56023.7,36335.5
56028.7,36343.7
56034.4,36351.5
56040.9,36358.7
56048.1,36365.1
56055.8,36370.9
56064.1,36375.9
56072.9,36380
56081.9,36383.2
56091.3,36385.6
56100.9,36387
56110.5,36387.5
56425.5,36387.5
56435.1,36387
56444.7,36385.6
56454.1,36383.2
56463.1,36380
56471.9,36375.9
56480.2,36370.9
56487.9,36365.1
56495.1,36358.7
56501.6,36351.5
56507.3,36343.7
56512.3,36335.5
56516.4,36326.7
56519.7,36317.6
56522,36308.3
56523.4,36298.7
56523.9,36289.1
56523.9,35796.9
56523.4,35787.3
56522,35777.7
56519.7,35768.4
56516.4,35759.3
56512.3,35750.5
56507.3,35742.3
56501.6,35734.5
56495.1,35727.3
56487.9,35720.9
56480.2,35715.1
56471.9,35710.1
56463.1,35706
56454.1,35702.8
56444.7,35700.4
56435.1,35699
56425.5,35698.5
56110.5,35698.5
Z" /> 
</g>
<g >
</g>
<g style="fill:#000000; fill-opacity:1.0; 
stroke:#000000; stroke-width:0; stroke-opacity:1; 
stroke-linecap:round; stroke-linejoin:round;">
<path style="fill:#000000; fill-opacity:1.0; 
stroke:#000000; stroke-width:0; stroke-opacity:1; 
stroke-linecap:round; stroke-linejoin:round;fill-rule:evenodd;"
d="M 57321.3,34621
57311.8,34622.4
57302.4,34624.8
57293.3,34628
57284.6,34632.1
57276.3,34637.1
57268.6,34642.9
57261.4,34649.3
57254.9,34656.5
57249.2,34664.3
57244.2,34672.5
57240.1,34681.3
57236.8,34690.4
57234.5,34699.7
57233,34709.3
57232.6,34718.9
57232.6,35211.1
57233,35220.7
57234.5,35230.3
57236.8,35239.6
57240.1,35248.7
57244.2,35257.5
57249.2,35265.7
57254.9,35273.5
57261.4,35280.7
57268.6,35287.1
57276.3,35292.9
57284.6,35297.9
57293.3,35302
57302.4,35305.2
57311.8,35307.6
57321.3,35309
57331,35309.5
57646,35309.5
57655.6,35309
57665.2,35307.6
57674.5,35305.2
57683.6,35302
57692.3,35297.9
57700.6,35292.9
57708.4,35287.1
57715.5,35280.7
57722,35273.5
57727.8,35265.7
57732.8,35257.5
57736.9,35248.7
57740.1,35239.6
57742.5,35230.3
57743.9,35220.7
57744.4,35211.1
57744.4,34718.9
57743.9,34709.3
57742.5,34699.7
57740.1,34690.4
57736.9,34681.3
57732.8,34672.5
57727.8,34664.3
57722,34656.5
57715.5,34649.3
57708.4,34642.9
57700.6,34637.1
57692.3,34632.1
57683.6,34628
57674.5,34624.8
57665.2,34622.4
57655.6,34621
57646,34620.5
57331,34620.5
Z" /> 
<path style="fill:#000000; fill-opacity:1.0; 
stroke:#000000; stroke-width:0; stroke-opacity:1; 
stroke-linecap:round; stroke-linejoin:round;fill-rule:evenodd;"
d="M 56100.9,34621
56091.3,34622.4
56081.9,34624.8
56072.9,34628
56064.1,34632.1
56055.8,34637.1
56048.1,34642.9
56040.9,34649.3
56034.4,34656.5
56028.7,34664.3
56023.7,34672.5
56019.6,34681.3
56016.3,34690.4
56014,34699.7
56012.6,34709.3
56012.1,34718.9
56012.1,35211.1
56012.6,35220.7
56014,35230.3
56016.3,35239.6
56019.6,35248.7
56023.7,35257.5
56028.7,35265.7
56034.4,35273.5
56040.9,35280.7
56048.1,35287.1
56055.8,35292.9
56064.1,35297.9
56072.9,35302
56081.9,35305.2
56091.3,35307.6
56100.9,35309
56110.5,35309.5
56425.5,35309.5
56435.1,35309
56444.7,35307.6
56454.1,35305.2
56463.1,35302
56471.9,35297.9
56480.2,35292.9
56487.9,35287.1
56495.1,35280.7
56501.6,35273.5
56507.3,35265.7
56512.3,35257.5
56516.4,35248.7
56519.7,35239.6
56522,35230.3
56523.4,35220.7
56523.9,35211.1
56523.9,34718.9
56523.4,34709.3
56522,34699.7
56519.7,34690.4
56516.4,34681.3
56512.3,34672.5
56507.3,34664.3
56501.6,34656.5
56495.1,34649.3
56487.9,34642.9
56480.2,34637.1
56471.9,34632.1
56463.1,34628
56454.1,34624.8
56444.7,34622.4
56435.1,34621
56425.5,34620.5
56110.5,34620.5
Z" /> 
</g>
<g >
</g>
<g style="fill:#000000; fill-opacity:1.0; 
stroke:#000000; stroke-width:0; stroke-opacity:1; 
stroke-linecap:round; stroke-linejoin:round;">
<path style="fill:#000000; fill-opacity:1.0; 
stroke:#000000; stroke-width:0; stroke-opacity:1; 
stroke-linecap:round; stroke-linejoin:round;fill-rule:evenodd;"
d="M 58479.5,37021.8
58470,37023.2
58460.6,37025.6
58451.5,37028.8
58442.8,37033
58434.5,37037.9
58426.7,37043.7
58419.6,37050.2
58413.1,37057.3
58407.3,37065.1
58402.4,37073.4
58398.2,37082.1
58395,37091.2
58392.6,37100.6
58391.2,37110.1
58390.7,37119.8
58390.7,37434.7
58391.2,37444.4
58392.6,37453.9
58395,37463.3
58398.2,37472.4
58402.4,37481.1
58407.3,37489.4
58413.1,37497.2
58419.6,37504.3
58426.7,37510.8
58434.5,37516.6
58442.8,37521.5
58451.5,37525.6
58460.6,37528.9
58470,37531.3
58479.5,37532.7
58489.2,37533.1
58981.3,37533.1
58990.9,37532.7
59000.5,37531.3
59009.9,37528.9
59019,37525.6
59027.7,37521.5
59036,37516.6
59043.7,37510.8
59050.9,37504.3
59057.4,37497.2
59063.1,37489.4
59068.1,37481.1
59072.2,37472.4
59075.5,37463.3
59077.8,37453.9
59079.3,37444.4
59079.7,37434.7
59079.7,37119.8
59079.3,37110.1
59077.8,37100.6
59075.5,37091.2
59072.2,37082.1
59068.1,37073.4
59063.1,37065.1
59057.4,37057.3
59050.9,37050.2
59043.7,37043.7
59036,37037.9
59027.7,37033
59019,37028.8
59009.9,37025.6
59000.5,37023.2
58990.9,37021.8
58981.3,37021.3
58489.2,37021.3
Z" /> 
<path style="fill:#000000; fill-opacity:1.0; 
stroke:#000000; stroke-width:0; stroke-opacity:1; 
stroke-linecap:round; stroke-linejoin:round;fill-rule:evenodd;"
d="M 58479.5,35801.3
58470,35802.7
58460.6,35805.1
58451.5,35808.4
58442.8,35812.5
58434.5,35817.4
58426.7,35823.2
58419.6,35829.7
58413.1,35836.8
58407.3,35844.6
58402.4,35852.9
58398.2,35861.6
58395,35870.7
58392.6,35880.1
58391.2,35889.6
58390.7,35899.3
58390.7,36214.2
58391.2,36223.9
58392.6,36233.4
58395,36242.8
58398.2,36251.9
58402.4,36260.6
58407.3,36268.9
58413.1,36276.7
58419.6,36283.8
58426.7,36290.3
58434.5,36296.1
58442.8,36301
58451.5,36305.2
58460.6,36308.4
58470,36310.8
58479.5,36312.2
58489.2,36312.7
58981.3,36312.7
58990.9,36312.2
59000.5,36310.8
59009.9,36308.4
59019,36305.2
59027.7,36301
59036,36296.1
59043.7,36290.3
59050.9,36283.8
59057.4,36276.7
59063.1,36268.9
59068.1,36260.6
59072.2,36251.9
59075.5,36242.8
59077.8,36233.4
59079.3,36223.9
59079.7,36214.2
59079.7,35899.3
59079.3,35889.6
59077.8,35880.1
59075.5,35870.7
59072.2,35861.6
59068.1,35852.9
59063.1,35844.6
59057.4,35836.8
59050.9,35829.7
59043.7,35823.2
59036,35817.4
59027.7,35812.5
59019,35808.4
59009.9,35805.1
59000.5,35802.7
58990.9,35801.3
58981.3,35800.9
58489.2,35800.9
Z" /> 
</g>
<g >
</g>
<g style="fill:#000000; fill-opacity:1.0; 
stroke:#000000; stroke-width:0; stroke-opacity:1; 
stroke-linecap:round; stroke-linejoin:round;">
<circle cx="46200" cy="31675.2" r="190.945" /> 
</g>
<g style="fill:#000000; fill-opacity:1.0; 
stroke:#000000; stroke-width:39.3701; stroke-opacity:1; 
stroke-linecap:round; stroke-linejoin:round;">
</g>
<g style="fill:#000000; fill-opacity:1.0; 
stroke:#000000; stroke-width:0; stroke-opacity:1; 
stroke-linecap:round; stroke-linejoin:round;">
<path style="fill:#000000; fill-opacity:1.0; 
stroke:#000000; stroke-width:0; stroke-opacity:1; 
stroke-linecap:round; stroke-linejoin:round;fill-rule:evenodd;"
d="M 46109.4,31675.2
46290.6,31675.2
46290.6,31324.8
46109.4,31324.8
Z" /> 
<path style="fill:#000000; fill-opacity:1.0; 
stroke:#000000; stroke-width:0; stroke-opacity:1; 
stroke-linecap:round; stroke-linejoin:round;fill-rule:evenodd;"
d="M 48425.4,31324.8
49474.6,31324.8
49474.6,29675.2
48425.4,29675.2
Z" /> 
<path style="fill:#000000; fill-opacity:1.0; 
stroke:#000000; stroke-width:0; stroke-opacity:1; 
stroke-linecap:round; stroke-linejoin:round;fill-rule:evenodd;"
d="M 47224.6,31324.8
47925.4,31324.8
47925.4,29675.2
47224.6,29675.2
Z" /> 
<path style="fill:#000000; fill-opacity:1.0; 
stroke:#000000; stroke-width:0; stroke-opacity:1; 
stroke-linecap:round; stroke-linejoin:round;fill-rule:evenodd;"
d="M 45675.4,31324.8
46724.6,31324.8
46724.6,29675.2
45675.4,29675.2
Z" /> 
<circle cx="48950" cy="31675.2" r="190.945" /> 
</g>
<g style="fill:#000000; fill-opacity:1.0; 
stroke:#000000; stroke-width:39.3701; stroke-opacity:1; 
stroke-linecap:round; stroke-linejoin:round;">
</g>
<g style="fill:#000000; fill-opacity:1.0; 
stroke:#000000; stroke-width:0; stroke-opacity:1; 
stroke-linecap:round; stroke-linejoin:round;">
<path style="fill:#000000; fill-opacity:1.0; 
stroke:#000000; stroke-width:0; stroke-opacity:1; 
stroke-linecap:round; stroke-linejoin:round;fill-rule:evenodd;"
d="M 48859.4,31675.2
49040.6,31675.2
49040.6,31324.8
48859.4,31324.8
Z" /> 
</g>
<g >
</g>
<g style="fill:#000000; fill-opacity:1.0; 
stroke:#000000; stroke-width:0; stroke-opacity:1; 
stroke-linecap:round; stroke-linejoin:round;">
<path style="fill:#000000; fill-opacity:1.0; 
stroke:#000000; stroke-width:0; stroke-opacity:1; 
stroke-linecap:round; stroke-linejoin:round;fill-rule:evenodd;"
d="M 48662.7,36264.8
48662.7,36107.4
48072.1,36107.4
48072.1,36264.8
Z" /> 
<path style="fill:#000000; fill-opacity:1.0; 
stroke:#000000; stroke-width:0; stroke-opacity:1; 
stroke-linecap:round; stroke-linejoin:round;fill-rule:evenodd;"
d="M 48662.7,36520.7
48662.7,36363.3
48072.1,36363.3
48072.1,36520.7
Z" /> 
<path style="fill:#000000; fill-opacity:1.0; 
stroke:#000000; stroke-width:0; stroke-opacity:1; 
stroke-linecap:round; stroke-linejoin:round;fill-rule:evenodd;"
d="M 48662.7,36776.6
48662.7,36619.2
48072.1,36619.2
48072.1,36776.6
Z" /> 
<path style="fill:#000000; fill-opacity:1.0; 
stroke:#000000; stroke-width:0; stroke-opacity:1; 
stroke-linecap:round; stroke-linejoin:round;fill-rule:evenodd;"
d="M 49709.9,36776.6
49709.9,36619.2
49119.3,36619.2
49119.3,36776.6
Z" /> 
<path style="fill:#000000; fill-opacity:1.0; 
stroke:#000000; stroke-width:0; stroke-opacity:1; 
stroke-linecap:round; stroke-linejoin:round;fill-rule:evenodd;"
d="M 49709.9,36520.7
49709.9,36363.3
49119.3,36363.3
49119.3,36520.7
Z" /> 
<path style="fill:#000000; fill-opacity:1.0; 
stroke:#000000; stroke-width:0; stroke-opacity:1; 
stroke-linecap:round; stroke-linejoin:round;fill-rule:evenodd;"
d="M 49709.9,36264.8
49709.9,36107.4
49119.3,36107.4
49119.3,36264.8
Z" /> 
</g>
<g >
</g>
<g style="fill:#000000; fill-opacity:1.0; 
stroke:#000000; stroke-width:0; stroke-opacity:1; 
stroke-linecap:round; stroke-linejoin:round;">
<circle cx="58800" cy="34800" r="393.701" /> 
</g>
<g style="fill:#000000; fill-opacity:1.0; 
stroke:#000000; stroke-width:39.3701; stroke-opacity:1; 
stroke-linecap:round; stroke-linejoin:round;">
</g>
<g style="fill:#000000; fill-opacity:1.0; 
stroke:#000000; stroke-width:0; stroke-opacity:1; 
stroke-linecap:round; stroke-linejoin:round;">
<circle cx="56800" cy="32800" r="393.701" /> 
</g>
<g style="fill:#000000; fill-opacity:1.0; 
stroke:#000000; stroke-width:39.3701; stroke-opacity:1; 
stroke-linecap:round; stroke-linejoin:round;">
</g>
<g style="fill:#000000; fill-opacity:1.0; 
stroke:#000000; stroke-width:0; stroke-opacity:1; 
stroke-linecap:round; stroke-linejoin:round;">
<circle cx="53000" cy="39200" r="393.701" /> 
</g>
<g style="fill:#000000; fill-opacity:1.0; 
stroke:#000000; stroke-width:39.3701; stroke-opacity:1; 
stroke-linecap:round; stroke-linejoin:round;">
</g>
<g style="fill:#000000; fill-opacity:1.0; 
stroke:#000000; stroke-width:0; stroke-opacity:1; 
stroke-linecap:round; stroke-linejoin:round;">
<circle cx="53900" cy="37500" r="393.701" /> 
</g>
<g style="fill:#000000; fill-opacity:1.0; 
stroke:#000000; stroke-width:39.3701; stroke-opacity:1; 
stroke-linecap:round; stroke-linejoin:round;">
</g>
<g style="fill:#000000; fill-opacity:1.0; 
stroke:#000000; stroke-width:0; stroke-opacity:1; 
stroke-linecap:round; stroke-linejoin:round;">
<circle cx="55900" cy="38100" r="393.701" /> 
</g>
<g style="fill:#000000; fill-opacity:1.0; 
stroke:#000000; stroke-width:39.3701; stroke-opacity:1; 
stroke-linecap:round; stroke-linejoin:round;">
</g>
<g style="fill:#000000; fill-opacity:1.0; 
stroke:#000000; stroke-width:0; stroke-opacity:1; 
stroke-linecap:round; stroke-linejoin:round;">
<circle cx="57800" cy="38100" r="393.701" /> 
</g>
<g style="fill:#000000; fill-opacity:1.0; 
stroke:#000000; stroke-width:39.3701; stroke-opacity:1; 
stroke-linecap:round; stroke-linejoin:round;">
</g>
<g style="fill:#000000; fill-opacity:1.0; 
stroke:#000000; stroke-width:0; stroke-opacity:1; 
stroke-linecap:round; stroke-linejoin:round;">
<circle cx="54800" cy="34700" r="393.701" /> 
</g>
<g style="fill:#000000; fill-opacity:1.0; 
stroke:#000000; stroke-width:39.3701; stroke-opacity:1; 
stroke-linecap:round; stroke-linejoin:round;">
</g>
<g style="fill:#000000; fill-opacity:1.0; 
stroke:#000000; stroke-width:0; stroke-opacity:1; 
stroke-linecap:round; stroke-linejoin:round;">
<circle cx="51900" cy="33700" r="393.701" /> 
</g>
<g style="fill:#000000; fill-opacity:1.0; 
stroke:#000000; stroke-width:39.3701; stroke-opacity:1; 
stroke-linecap:round; stroke-linejoin:round;">
</g>
<g style="fill:#000000; fill-opacity:1.0; 
stroke:#000000; stroke-width:0; stroke-opacity:1; 
stroke-linecap:round; stroke-linejoin:round;">
<circle cx="49900" cy="35200" r="393.701" /> 
</g>
<g style="fill:#000000; fill-opacity:1.0; 
stroke:#000000; stroke-width:39.3701; stroke-opacity:1; 
stroke-linecap:round; stroke-linejoin:round;">
</g>
<g style="fill:#000000; fill-opacity:1.0; 
stroke:#000000; stroke-width:0; stroke-opacity:1; 
stroke-linecap:round; stroke-linejoin:round;">
<circle cx="48500" cy="33000" r="393.701" /> 
</g>
<g style="fill:#000000; fill-opacity:1.0; 
stroke:#000000; stroke-width:39.3701; stroke-opacity:1; 
stroke-linecap:round; stroke-linejoin:round;">
</g>
<g style="fill:#000000; fill-opacity:1.0; 
stroke:#000000; stroke-width:0; stroke-opacity:1; 
stroke-linecap:round; stroke-linejoin:round;">
<circle cx="47300" cy="34100" r="393.701" /> 
</g>
<g style="fill:#000000; fill-opacity:1.0; 
stroke:#000000; stroke-width:39.3701; stroke-opacity:1; 
stroke-linecap:round; stroke-linejoin:round;">
</g>
<g style="fill:#000000; fill-opacity:1.0; 
stroke:#000000; stroke-width:0; stroke-opacity:1; 
stroke-linecap:round; stroke-linejoin:round;">
<circle cx="44200" cy="34100" r="393.701" /> 
</g>
<g style="fill:#000000; fill-opacity:1.0; 
stroke:#000000; stroke-width:39.3701; stroke-opacity:1; 
stroke-linecap:round; stroke-linejoin:round;">
</g>
<g style="fill:#000000; fill-opacity:1.0; 
stroke:#000000; stroke-width:0; stroke-opacity:1; 
stroke-linecap:round; stroke-linejoin:round;">
<circle cx="44400" cy="39700" r="393.701" /> 
</g>
<g style="fill:#000000; fill-opacity:1.0; 
stroke:#000000; stroke-width:39.3701; stroke-opacity:1; 
stroke-linecap:round; stroke-linejoin:round;">
</g>
<g style="fill:#000000; fill-opacity:1.0; 
stroke:#000000; stroke-width:0; stroke-opacity:1; 
stroke-linecap:round; stroke-linejoin:round;">
<circle cx="47500" cy="38800" r="393.701" /> 
</g>
<g style="fill:#000000; fill-opacity:1.0; 
stroke:#000000; stroke-width:39.3701; stroke-opacity:1; 
stroke-linecap:round; stroke-linejoin:round;">
</g>
<g style="fill:#000000; fill-opacity:1.0; 
stroke:#000000; stroke-width:0; stroke-opacity:1; 
stroke-linecap:round; stroke-linejoin:round;">
<circle cx="49600" cy="38700" r="393.701" /> 
</g>
<g style="fill:#000000; fill-opacity:1.0; 
stroke:#000000; stroke-width:39.3701; stroke-opacity:1; 
stroke-linecap:round; stroke-linejoin:round;">
</g>
<g style="fill:#000000; fill-opacity:1.0; 
stroke:#000000; stroke-width:0; stroke-opacity:1; 
stroke-linecap:round; stroke-linejoin:round;">
<circle cx="47400" cy="36200" r="393.701" /> 
</g>
<g style="fill:#000000; fill-opacity:1.0; 
stroke:#000000; stroke-width:39.3701; stroke-opacity:1; 
stroke-linecap:round; stroke-linejoin:round;">
</g>
<g style="fill:#000000; fill-opacity:1.0; 
stroke:#000000; stroke-width:0; stroke-opacity:1; 
stroke-linecap:round; stroke-linejoin:round;">
<circle cx="46200" cy="39600" r="393.701" /> 
</g>
<g style="fill:#000000; fill-opacity:1.0; 
stroke:#000000; stroke-width:39.3701; stroke-opacity:1; 
stroke-linecap:round; stroke-linejoin:round;">
</g>
<g >
</g>
<g style="fill:#000000; fill-opacity:1.0; 
stroke:#000000; stroke-width:39.3701; stroke-opacity:1; 
stroke-linecap:round; stroke-linejoin:round;">
</g>
<g style="fill:#000000; fill-opacity:1.0; 
stroke:#000000; stroke-width:157.48; stroke-opacity:1; 
stroke-linecap:round; stroke-linejoin:round;">
</g>
<g style="fill:#000000; fill-opacity:0.0; 
stroke:#000000; stroke-width:157.48; stroke-opacity:1; 
stroke-linecap:round; stroke-linejoin:round;">
<path d="M47581 35400
L48367 36186
" />
<path d="M46400 35400
L47581 35400
" />
</g>
<g style="fill:#000000; fill-opacity:0.0; 
stroke:#000000; stroke-width:118.11; stroke-opacity:1; 
stroke-linecap:round; stroke-linejoin:round;">
<path d="M49048 36186
L49414 36186
" />
<path d="M48792 36442
L49048 36186
" />
<path d="M48367 36442
L48792 36442
" />
</g>
<g style="fill:#000000; fill-opacity:0.0; 
stroke:#000000; stroke-width:157.48; stroke-opacity:1; 
stroke-linecap:round; stroke-linejoin:round;">
<path d="M52336 36186
L53000 36850
" />
<path d="M49414 36186
L52336 36186
" />
</g>
<g style="fill:#000000; fill-opacity:0.0; 
stroke:#000000; stroke-width:118.11; stroke-opacity:1; 
stroke-linecap:round; stroke-linejoin:round;">
<path d="M49070 36442
L49414 36442
" />
<path d="M48815 36697
L49070 36442
" />
<path d="M48367 36697
L48815 36697
" />
</g>
<g style="fill:#000000; fill-opacity:0.0; 
stroke:#000000; stroke-width:157.48; stroke-opacity:1; 
stroke-linecap:round; stroke-linejoin:round;">
<path d="M49414 36442
L50042 36442
" />
<path d="M50042 36442
L50300 36700
" />
<path d="M50300 37400
L51000 38100
" />
<path d="M50300 36700
L50300 37400
" />
<path d="M44400 36650
L45050 37300
" />
<path d="M48812 37300
L49414 36697
" />
<path d="M45050 37300
L48812 37300
" />
</g>
<g style="fill:#000000; fill-opacity:0.0; 
stroke:#000000; stroke-width:590.551; stroke-opacity:1; 
stroke-linecap:round; stroke-linejoin:round;">
<path d="M41500 39250
L42675 39250
" />
<path d="M41500 36500
L42675 36500
" />
<path d="M61471 34695
L60295 34695
" />
<path d="M61471 37445
L60295 37445
" />
<path d="M58748 36070
L58735 36056
" />
<path d="M61471 36070
L58748 36070
" />
<path d="M57502 36056
L57488 36043
" />
<path d="M58735 36056
L57502 36056
" />
<path d="M57488 36043
L57488 34965
" />
<path d="M45650 36650
L44400 35400
" />
<path d="M46400 36650
L45650 36650
" />
<path d="M47575 32225
L47575 30500
" />
<path d="M44400 35400
L47575 32225
" />
<path d="M44375 37875
L44400 37900
" />
<path d="M41500 37875
L44375 37875
" />
<path d="M56268 36043
L54887 36043
" />
<path d="M56268 36043
L56268 34965
" />
<path d="M53443 36043
L53000 35600
" />
<path d="M54887 36043
L53443 36043
" />
</g>
<g >
</g>
<g style="fill:#000000; fill-opacity:0.0; 
stroke:#000000; stroke-width:590.551; stroke-opacity:1; 
stroke-linecap:round; stroke-linejoin:round;">
<g >
</g>
<g style="fill:#000000; fill-opacity:1.0; 
stroke:#000000; stroke-width:100; stroke-opacity:1; 
stroke-linecap:round; stroke-linejoin:round;">
<path style="fill:#000000; fill-opacity:1.0; 
stroke:#000000; stroke-width:100; stroke-opacity:1; 
stroke-linecap:round; stroke-linejoin:round;fill-rule:evenodd;"
d="M 49724.6,30387.5
49662.1,30450
49000,30450
49000,30442.1
48900,30442.1
48900,30450
48237.9,30450
48175.4,30387.5
48174.3,29750
48094.3,29750
48094.3,31324.8
48091.1,31357.8
48081.5,31389.4
48065.8,31418.7
48044.8,31444.2
48038.4,31449.5
48038.4,32202.2
48040.6,32225
48038.4,32247.8
48031.7,32315.8
48005.2,32403.2
47962.2,32483.7
47904.2,32554.2
47886.6,32568.8
45055.3,35400
45841.9,36186.6
46330.1,36186.6
46353.9,36181.9
46446.1,36181.9
46536.5,36199.9
46621.7,36235.2
46698.4,36286.4
46763.6,36351.6
46814.8,36428.3
46850.1,36513.5
46868.1,36603.9
46868.1,36696.1
46850.1,36786.5
46814.8,36871.7
46763.6,36948.4
46698.4,37013.6
46639.2,37053.1
48710.3,37053.1
48839.7,36923.7
48836.8,36924
48826.2,36925.1
48826.2,36925.1
48815.1,36926.2
48803.9,36925.1
48741.6,36925.1
48727.3,36932.7
48695.6,36942.3
48662.7,36945.6
48072.1,36945.6
48039.1,36942.3
48007.5,36932.7
47978.3,36917.1
47952.7,36896.1
47931.6,36870.5
47916,36841.3
47906.4,36809.6
47903.2,36776.6
47903.2,36619.2
47906.4,36586.2
47911.4,36570
47906.4,36553.7
47903.2,36520.7
47903.2,36363.3
47906.4,36330.3
47911.4,36314
47906.4,36297.8
47903.2,36264.8
47903.2,36107.4
47906.4,36074.4
47906.5,36074.3
47479,35646.9
46798.1,35646.9
46763.6,35698.4
46698.4,35763.6
46621.7,35814.8
46536.5,35850.1
46446.1,35868.1
46353.9,35868.1
46263.5,35850.1
46178.3,35814.8
46101.6,35763.6
46036.4,35698.4
45985.2,35621.7
45949.9,35536.5
45931.9,35446.1
45931.9,35353.9
45949.9,35263.5
45985.2,35178.3
46036.4,35101.6
46101.6,35036.4
46178.3,34985.2
46263.5,34949.9
46353.9,34931.9
46446.1,34931.9
46536.5,34949.9
46621.7,34985.2
46698.4,35036.4
46763.6,35101.6
46798.1,35153.1
47569.2,35153.1
47581.3,35152
47593.4,35153.1
47629.7,35156.7
47676.2,35170.8
47719.1,35193.8
47756.7,35224.6
47764.4,35234
48468.8,35938.4
48662.7,35938.4
48695.6,35941.7
48727.3,35951.3
48756.5,35966.9
48782.1,35987.9
48803.1,36013.5
48818.7,36042.7
48828.3,36074.4
48829.3,36084
48880,36033.4
48887.1,36024.7
48921.7,35996.3
48961.1,35975.2
48988.5,35966.9
49003.9,35962.2
49025.6,35960.1
49037.3,35958.9
49037.3,35958.9
49041.1,35958.6
49054.7,35951.3
49086.4,35941.7
49119.3,35938.4
49709.9,35938.4
49718.2,35939.2
50590,35939.2
50619.9,35909.4
50525.3,35883.1
50479.2,35785
50453.1,35679.9
50448.1,35571.6
50464.2,35464.5
50500.9,35362.6
50525.3,35316.9
50619.9,35290.6
50929.3,35600
50923.7,35605.6
50994.4,35676.3
51000,35670.7
51005.6,35676.3
51076.3,35605.6
51070.7,35600
51380.1,35290.6
51474.7,35316.9
51520.8,35415
51546.9,35520.1
51551.9,35628.4
51535.8,35735.5
51499.1,35837.4
51474.7,35883.1
51380.1,35909.4
51410,35939.2
52324,35939.2
52336.1,35938.1
52384.5,35942.8
52431,35956.9
52465.2,35975.2
52473.9,35979.9
52511.5,36010.7
52519.2,36020.1
52893.1,36394
52953.9,36381.9
53046.1,36381.9
53136.5,36399.9
53158.5,36409
53113.8,36372.2
53099.2,36354.6
52721.7,35977.1
52701.6,35963.6
52636.4,35898.4
52585.2,35821.7
52549.9,35736.5
52531.9,35646.1
52531.9,35553.9
52549.9,35463.5
52585.2,35378.3
52636.4,35301.6
52701.6,35236.4
52726.3,35219.9
51309.4,35219.9
51000,35529.3
50690.6,35219.9
50716.9,35125.3
50815,35079.2
50920.1,35053.1
51028.4,35048.1
51135.5,35064.2
51237.4,35100.9
51283.1,35125.3
51309.4,35219.9
52726.3,35219.9
52778.3,35185.2
52863.5,35149.9
52953.9,35131.9
53046.1,35131.9
53136.5,35149.9
53221.7,35185.2
53298.4,35236.4
53363.6,35301.6
53377.1,35321.7
53634.9,35579.6
55804.6,35579.6
55804.6,34942.2
55811.3,34874.2
55837.8,34786.8
55843.2,34776.8
55843.2,34718.9
55848.3,34666.8
55863.5,34616.6
55888.2,34570.4
55921.5,34529.9
55962,34496.6
56008.2,34471.9
56058.4,34456.7
56110.5,34451.6
56425.5,34451.6
56477.6,34456.7
56527.8,34471.9
56574,34496.6
56614.5,34529.9
56647.8,34570.4
56672.5,34616.6
56687.7,34666.8
56692.8,34718.9
56692.8,34776.8
56698.2,34786.8
56724.7,34874.2
56731.4,34942.2
56731.4,36020.2
56733.6,36043
56724.7,36133.8
56698.2,36221.2
56692.8,36231.2
56692.8,36289.1
56687.7,36341.2
56672.5,36391.4
56647.8,36437.6
56614.5,36478.1
56574,36511.4
56527.8,36536.1
56477.6,36551.3
56425.5,36556.4
56110.5,36556.4
56058.4,36551.3
56008.2,36536.1
55962,36511.4
55955.9,36506.4
53465.8,36506.4
53443,36508.6
53420.2,36506.4
53352.2,36499.7
53290.1,36480.9
53298.4,36486.4
53363.6,36551.6
53414.8,36628.3
53450.1,36713.5
53468.1,36803.9
53468.1,36896.1
53450.1,36986.5
53414.8,37071.7
53363.6,37148.4
53298.4,37213.6
53221.7,37264.8
53136.5,37300.1
53046.1,37318.1
52953.9,37318.1
52863.5,37300.1
52778.3,37264.8
52726.3,37230.1
51309.4,37230.1
51283.1,37324.7
51185,37370.8
51079.9,37396.9
50971.6,37401.9
50864.5,37385.8
50762.6,37349.1
50716.9,37324.7
50690.6,37230.1
51000,36920.7
51309.4,37230.1
52726.3,37230.1
52701.6,37213.6
52636.4,37148.4
52585.2,37071.7
52549.9,36986.5
52531.9,36896.1
52531.9,36878.4
51551.9,36878.4
51535.8,36985.5
51499.1,37087.4
51474.7,37133.1
51380.1,37159.4
51070.7,36850
51380.1,36540.6
51474.7,36566.9
51520.8,36665
51546.9,36770.1
51551.9,36878.4
52531.9,36878.4
52531.9,36803.9
52544,36743.1
52233.8,36432.9
51299.1,36432.9
51309.4,36469.9
51000,36779.3
50690.6,36469.9
50700.9,36432.9
50382,36432.9
50466,36516.9
50475.4,36524.6
50506.2,36562.2
50517.1,36582.4
50525.3,36566.9
50619.9,36540.6
50929.3,36850
50619.9,37159.4
50546.8,37139.1
50546.8,37297.8
50893.1,37644
50953.9,37631.9
51046.1,37631.9
51136.5,37649.9
51221.7,37685.2
51298.4,37736.4
51363.6,37801.6
51414.8,37878.3
51450.1,37963.5
51468.1,38053.9
51468.1,38146.1
51450.1,38236.5
51414.8,38321.7
51363.6,38398.4
51298.4,38463.6
51221.7,38514.8
51136.5,38550.1
51046.1,38568.1
50953.9,38568.1
50863.5,38550.1
50778.3,38514.8
50701.6,38463.6
50636.4,38398.4
50585.2,38321.7
50567.9,38280.1
46709.4,38280.1
46683.1,38374.7
46585,38420.8
46479.9,38446.9
46371.6,38451.9
46264.5,38435.8
46162.6,38399.1
46116.9,38374.7
46090.6,38280.1
46400,37970.7
46709.4,38280.1
50567.9,38280.1
50549.9,38236.5
50531.9,38146.1
50531.9,38053.9
50544,37993.1
50134,37583.1
50124.6,37575.4
50093.8,37537.8
50070.8,37494.9
50056.7,37448.4
50053.1,37412.1
50052,37400
50053.1,37387.9
50053.1,36802.2
49939.8,36688.9
49878.8,36688.9
49878.8,36776.6
49875.6,36809.6
49866,36841.3
49850.4,36870.5
49829.3,36896.1
49803.7,36917.1
49774.5,36932.7
49742.9,36942.3
49709.9,36945.6
49516.1,36945.6
48995.7,37466
48987.9,37475.4
48950.3,37506.2
48907.4,37529.2
48860.9,37543.3
48812.5,37548
48800.4,37546.9
46823.9,37546.9
46780.1,37590.6
46874.7,37616.9
46920.8,37715
46946.9,37820.1
46951.9,37928.4
46935.8,38035.5
46899.1,38137.4
46874.7,38183.1
46780.1,38209.4
46470.7,37900
46476.3,37894.4
46405.6,37823.7
46400,37829.3
46394.4,37823.7
46323.7,37894.4
46329.3,37900
46019.9,38209.4
45925.3,38183.1
45879.2,38085
45853.1,37979.9
45848.1,37871.6
45864.2,37764.5
45900.9,37662.6
45925.3,37616.9
46019.9,37590.6
45976.1,37546.9
45062.1,37546.9
45050,37548
45037.9,37546.9
45001.6,37543.3
44955.1,37529.2
44912.2,37506.2
44874.6,37475.4
44866.9,37466
44506.9,37106
44446.1,37118.1
44353.9,37118.1
44263.5,37100.1
44178.3,37064.8
44101.6,37013.6
44036.4,36948.4
43985.2,36871.7
43949.9,36786.5
43931.9,36696.1
43931.9,36603.9
43946.1,36532.7
43117.1,36532.7
43102.2,36618.3
43070.9,36699.3
43060.8,36718.3
42977.3,36731.4
42913.1,36667.2
42905.2,36691.5
42881.1,36734.4
42861.7,36757.2
42906.6,36802.1
42893.5,36885.6
42814.1,36920.7
42729.4,36939.8
42642.5,36941.9
42575.7,36930.3
42576,37024.6
42571.2,37073.6
42556.9,37120.7
42533.7,37164.2
42502.4,37202.2
42464.4,37233.5
42420.9,37256.7
42373.8,37271
42324.8,37275.8
41612.5,37274.6
41550,37212.1
41550,36550
41557.9,36550
41557.9,36450
41550,36450
41550,35787.9
41612.5,35725.4
42324.8,35724.2
42373.8,35729
42420.9,35743.3
42464.4,35766.5
42502.4,35797.8
42533.7,35835.8
42556.9,35879.3
42571.2,35926.4
42576,35975.4
42575.7,36070.4
42621,36060.2
42707.9,36058.1
42793.5,36073
42874.5,36104.3
42893.5,36114.4
42906.6,36197.9
42861.7,36242.8
42881.1,36265.6
42905.2,36308.5
42913.1,36332.8
42977.3,36268.6
43060.8,36281.7
43095.9,36361.1
43115,36445.8
43117.1,36532.7
43946.1,36532.7
43949.9,36513.5
43985.2,36428.3
44036.4,36351.6
44101.6,36286.4
44178.3,36235.2
44263.5,36199.9
44353.9,36181.9
44446.1,36181.9
44536.5,36199.9
44550.2,36205.5
44121.7,35777.1
44101.6,35763.6
44036.4,35698.4
43985.2,35621.7
43949.9,35536.5
43931.9,35446.1
43931.9,35353.9
43949.9,35263.5
43985.2,35178.3
44036.4,35101.6
44101.6,35036.4
44121.7,35022.9
47111.6,32033.1
47111.6,31449.5
47105.2,31444.2
47084.2,31418.7
47068.5,31389.4
47058.9,31357.8
47055.7,31324.8
46975.8,31324.8
46971,31373.8
46956.7,31420.9
46933.5,31464.4
46902.2,31502.4
46864.2,31533.7
46820.7,31556.9
46773.6,31571.2
46724.6,31576
46629.6,31575.7
46639.8,31621
46641.9,31707.9
46627,31793.5
46595.7,31874.5
46585.6,31893.5
46502.1,31906.6
46457.2,31861.7
46434.4,31881.1
46391.5,31905.2
46367.2,31913.1
46431.4,31977.3
46418.3,32060.8
46338.9,32095.9
46254.2,32115
46167.3,32117.1
46081.7,32102.2
46000.7,32070.9
45981.7,32060.8
45968.6,31977.3
46032.8,31913.1
46008.5,31905.2
45965.6,31881.1
45942.8,31861.7
45897.9,31906.6
45814.4,31893.5
45779.3,31814.1
45760.2,31729.4
45758.1,31642.5
45761.8,31621.4
43698,31621.4
43698,31778.6
43667.4,31932.8
43607.2,32078
43519.9,32208.7
43408.7,32319.9
43278,32407.2
43132.8,32467.4
42978.6,32498
42821.4,32498
42667.2,32467.4
42522,32407.2
42391.3,32319.9
42280.1,32208.7
42192.8,32078
42132.6,31932.8
42102,31778.6
42102,31621.4
42132.6,31467.2
42192.8,31322
42280.1,31191.3
42391.3,31080.1
42522,30992.8
42667.2,30932.6
42821.4,30902
42978.6,30902
43132.8,30932.6
43278,30992.8
43408.7,31080.1
43519.9,31191.3
43607.2,31322
43667.4,31467.2
43698,31621.4
45761.8,31621.4
45769.7,31575.7
45675.4,31576
45626.4,31571.2
45579.3,31556.9
45535.8,31533.7
45497.8,31502.4
45466.5,31464.4
45443.3,31420.9
45429,31373.8
45424.2,31324.8
45425.4,30612.5
45487.9,30550
46150,30550
46150,30557.9
46250,30557.9
46250,30550
46912.1,30550
46974.6,30612.5
46975.8,31324.8
47055.7,31324.8
47055.7,29750
46975.7,29750
46974.6,30387.5
46912.1,30450
46250,30450
46250,30442.1
46150,30442.1
46150,30450
45487.9,30450
45425.4,30387.5
45424.3,29750
40750,29750
40750,33825.6
42578,33825.6
42578,35500.4
40750,35500.4
40750,35724.3
41387.5,35725.4
41450,35787.9
41450,36450
41442.1,36450
41442.1,36550
41450,36550
41450,37212.1
41387.5,37274.6
40750,37275.7
40750,37355.7
42324.8,37355.7
42357.8,37358.9
42389.4,37368.5
42418.7,37384.2
42444.2,37405.2
42449.5,37411.6
44352.2,37411.6
44375,37409.4
44397.8,37411.6
44465.8,37418.3
44553.2,37444.8
44633.7,37487.8
44668.5,37516.4
44698.4,37536.4
44763.6,37601.6
44814.8,37678.3
44850.1,37763.5
44868.1,37853.9
44868.1,37946.1
44850.1,38036.5
44814.8,38121.7
44763.6,38198.4
44698.4,38263.6
44621.7,38314.8
44536.5,38350.1
44446.1,38368.1
44353.9,38368.1
44263.5,38350.1
44235.1,38338.4
42449.5,38338.4
42444.2,38344.8
42418.7,38365.8
42389.4,38381.5
42357.8,38391.1
42324.8,38394.3
40750,38394.3
40750,38474.3
41387.5,38475.4
41450,38537.9
41450,39200
41442.1,39200
41442.1,39300
41450,39300
41450,39962.1
41387.5,40024.6
40750,40025.7
40750,43350
47190,43350
47190,41721.4
43598,41721.4
43598,41878.6
43567.4,42032.8
43507.2,42178
43419.9,42308.7
43308.7,42419.9
43178,42507.2
43032.8,42567.4
42878.6,42598
42721.4,42598
42567.2,42567.4
42422,42507.2
42291.3,42419.9
42180.1,42308.7
42092.8,42178
42032.6,42032.8
42002,41878.6
42002,41721.4
42032.6,41567.2
42092.8,41422
42180.1,41291.3
42291.3,41180.1
42422,41092.8
42567.2,41032.6
42721.4,41002
42878.6,41002
43032.8,41032.6
43178,41092.8
43308.7,41180.1
43419.9,41291.3
43507.2,41422
43567.4,41567.2
43598,41721.4
47190,41721.4
47190,40660
47191,40650.2
47193.8,40640.9
47198.4,40632.2
47204.6,40624.6
47604.6,40224.6
47612.2,40218.4
47620.9,40213.8
47630.2,40211
47640,40210
54040,40210
54049.8,40211
54059.1,40213.8
54067.8,40218.4
54075.4,40224.6
54475.4,40624.6
54481.6,40632.2
54486.2,40640.9
54489,40650.2
54490,40660
54490,43350
62250,43350
62250,41721.4
60998,41721.4
60998,41878.6
60967.4,42032.8
60907.2,42178
60819.9,42308.7
60708.7,42419.9
60578,42507.2
60432.8,42567.4
60278.6,42598
60121.4,42598
59967.2,42567.4
59822,42507.2
59691.3,42419.9
59580.1,42308.7
59492.8,42178
59432.6,42032.8
59402,41878.6
59402,41721.4
59432.6,41567.2
59492.8,41422
59580.1,41291.3
59691.3,41180.1
59822,41092.8
59967.2,41032.6
60121.4,41002
60278.6,41002
60432.8,41032.6
60578,41092.8
60708.7,41180.1
60819.9,41291.3
60907.2,41422
60967.4,41567.2
60998,41721.4
62250,41721.4
62250,38625.6
62178,38625.6
62178,40300.4
60222,40300.4
60222,39282.7
43117.1,39282.7
43102.2,39368.3
43070.9,39449.3
43060.8,39468.3
42977.3,39481.4
42913.1,39417.2
42905.2,39441.5
42881.1,39484.4
42861.7,39507.2
42906.6,39552.1
42893.5,39635.6
42814.1,39670.7
42729.4,39689.8
42642.5,39691.9
42575.7,39680.3
42576,39774.6
42571.2,39823.6
42556.9,39870.7
42533.7,39914.2
42502.4,39952.2
42464.4,39983.5
42420.9,40006.7
42373.8,40021
42324.8,40025.8
41612.5,40024.6
41550,39962.1
41550,39300
41557.9,39300
41557.9,39200
41550,39200
41550,38537.9
41612.5,38475.4
42324.8,38474.2
42373.8,38479
42420.9,38493.3
42464.4,38516.5
42502.4,38547.8
42533.7,38585.8
42556.9,38629.3
42571.2,38676.4
42576,38725.4
42575.7,38820.4
42621,38810.2
42707.9,38808.1
42793.5,38823
42874.5,38854.3
42893.5,38864.4
42906.6,38947.9
42861.7,38992.8
42881.1,39015.6
42905.2,39058.5
42913.1,39082.8
42977.3,39018.6
43060.8,39031.7
43095.9,39111.1
43115,39195.8
43117.1,39282.7
60222,39282.7
60222,38625.6
62178,38625.6
62250,38625.6
62250,38480.1
53309.4,38480.1
53283.1,38574.7
53185,38620.8
53079.9,38646.9
52971.6,38651.9
52864.5,38635.8
52762.6,38599.1
52716.9,38574.7
52690.6,38480.1
53000,38170.7
53309.4,38480.1
62250,38480.1
62250,38220.7
61583.5,38219.6
61521,38157.1
61521,37495
61528.9,37495
61528.9,37395
61521,37395
61521,36732.9
61421,36732.9
61421,37395
61413.1,37395
61413.1,37495
61421,37495
61421,38157.1
61358.5,38219.6
60646.2,38220.8
60597.2,38216
60550.1,38201.7
60506.6,38178.5
60468.6,38147.2
60453.1,38128.4
53551.9,38128.4
53535.8,38235.5
53499.1,38337.4
53474.7,38383.1
53380.1,38409.4
53070.7,38100
52929.3,38100
52619.9,38409.4
52525.3,38383.1
52479.2,38285
52453.1,38179.9
52448.1,38071.6
52464.2,37964.5
52500.9,37862.6
52525.3,37816.9
52619.9,37790.6
52929.3,38100
53070.7,38100
53380.1,37790.6
53474.7,37816.9
53520.8,37915
53546.9,38020.1
53551.9,38128.4
60453.1,38128.4
60437.3,38109.2
60414.1,38065.7
60399.8,38018.6
60395,37969.6
60395.3,37874.6
60350,37884.8
60263.1,37886.9
60177.5,37872
60096.5,37840.7
60077.5,37830.6
60064.4,37747.1
60109.3,37702.2
60089.9,37679.4
60065.8,37636.5
60057.9,37612.2
59993.7,37676.4
59910.2,37663.3
59875.1,37583.9
59863.7,37533.1
59330.9,37533.1
59326.1,37582.2
59311.8,37629.3
59288.6,37672.7
59257.4,37710.8
59219.3,37742
59175.9,37765.2
59128.7,37779.5
59079.7,37784.4
58847.7,37783.1
58785.2,37720.6
58785.2,37327.2
58685.2,37327.2
58685.2,37720.6
58622.7,37783.1
58390.7,37784.4
58341.7,37779.5
58294.6,37765.2
58251.2,37742
58213.1,37710.8
58181.9,37672.7
58158.7,37629.3
58144.4,37582.2
58139.5,37533.1
58139.7,37519.4
55482.7,37519.4
55477.9,37568.4
55463.6,37615.5
55440.4,37658.9
55409.1,37697
55371.1,37728.3
55327.6,37751.5
55280.5,37765.8
55231.5,37770.6
54999.5,37769.4
54937,37706.9
54937,37313.5
54837,37313.5
54837,37706.9
54774.5,37769.4
54542.5,37770.6
54493.5,37765.8
54446.4,37751.5
54402.9,37728.3
54392.7,37719.9
53309.4,37719.9
53000,38029.3
52690.6,37719.9
52716.9,37625.3
52815,37579.2
52920.1,37553.1
53028.4,37548.1
53135.5,37564.2
53237.4,37600.9
53283.1,37625.3
53309.4,37719.9
54392.7,37719.9
54364.9,37697
54333.6,37658.9
54310.4,37615.5
54296.1,37568.4
54291.3,37519.4
54292.5,37376
54355,37313.5
54837,37313.5
54937,37313.5
55419,37313.5
55481.5,37376
55482.7,37519.4
58139.7,37519.4
58140.7,37389.7
58203.2,37327.2
58685.2,37327.2
58785.2,37327.2
59267.2,37327.2
59329.7,37389.7
59330.9,37533.1
59863.7,37533.1
59856,37499.2
59853.9,37412.3
59868.8,37326.7
59900.1,37245.7
59910.2,37226.7
59993.7,37213.6
60057.9,37277.8
60065.8,37253.5
60089.9,37210.6
60109.3,37187.8
60064.4,37142.9
60077.5,37059.4
60156.9,37024.3
60169.9,37021.3
59330.9,37021.3
59329.7,37164.7
59267.2,37227.2
58785.2,37227.2
58785.2,36833.8
58685.2,36833.8
58685.2,37227.2
58203.2,37227.2
58140.7,37164.7
58139.5,37021.3
58140.9,37007.6
55482.7,37007.6
55481.5,37151
55419,37213.5
54937,37213.5
54937,36820.1
54837,36820.1
54837,37213.5
54355,37213.5
54292.5,37151
54291.3,37007.6
54296.1,36958.6
54310.4,36911.4
54333.6,36868
54364.9,36829.9
54402.9,36798.7
54446.4,36775.5
54493.5,36761.2
54542.5,36756.4
54774.5,36757.6
54837,36820.1
54937,36820.1
54999.5,36757.6
55231.5,36756.4
55280.5,36761.2
55327.6,36775.5
55371.1,36798.7
55409.1,36829.9
55440.4,36868
55463.6,36911.4
55477.9,36958.6
55482.7,37007.6
58140.9,37007.6
58144.4,36972.3
58158.7,36925.2
58181.9,36881.8
58213.1,36843.7
58251.2,36812.5
58294.6,36789.2
58341.7,36774.9
58390.7,36770.1
58622.7,36771.3
58685.2,36833.8
58785.2,36833.8
58847.7,36771.3
59079.7,36770.1
59128.7,36774.9
59175.9,36789.2
59219.3,36812.5
59257.4,36843.7
59288.6,36881.8
59311.8,36925.2
59326.1,36972.3
59330.9,37021.3
60169.9,37021.3
60241.6,37005.2
60328.5,37003.1
60395.3,37014.7
60395,36920.4
60399.8,36871.4
60414.1,36824.3
60437.3,36780.8
60468.6,36742.8
60506.6,36711.5
60550.1,36688.3
60597.2,36674
60646.2,36669.2
61358.5,36670.4
61421,36732.9
61521,36732.9
61583.5,36670.4
62250,36669.3
62250,36589.3
60646.2,36589.3
60613.2,36586.1
60581.6,36576.5
60552.3,36560.8
60526.8,36539.8
60521.5,36533.4
58771.2,36533.4
58748.5,36535.6
58725.7,36533.4
58657.6,36526.7
58636.1,36520.1
57778,36520.1
57748.3,36536.1
57698.1,36551.3
57646,36556.4
57331,36556.4
57278.8,36551.3
57228.7,36536.1
57182.5,36511.4
57141.9,36478.1
57108.7,36437.6
57084,36391.4
57068.8,36341.2
57063.6,36289.1
57063.6,36231.2
57058.3,36221.2
57031.8,36133.8
57025.1,36065.8
57025.1,36065.8
57022.8,36043
57025.1,36020.2
57025.1,34942.2
57031.8,34874.2
57058.3,34786.8
57063.6,34776.8
57063.6,34718.9
57068.8,34666.8
57084,34616.6
57108.7,34570.4
57141.9,34529.9
57182.5,34496.6
57228.7,34471.9
57278.8,34456.7
57331,34451.6
57646,34451.6
57698.1,34456.7
57748.3,34471.9
57794.5,34496.6
57835,34529.9
57868.2,34570.4
57893,34616.6
57908.2,34666.8
57913.3,34718.9
57913.3,34776.8
57918.7,34786.8
57945.2,34874.2
57951.9,34942.2
57951.9,35593.4
58712.5,35593.4
58735.2,35591.1
58758,35593.4
58826.1,35600.1
58847.6,35606.6
60521.5,35606.6
60526.8,35600.2
60552.3,35579.2
60581.6,35563.5
60613.2,35553.9
60646.2,35550.7
62250,35550.7
62250,35470.7
61583.5,35469.6
61521,35407.1
61521,34745
61528.9,34745
61528.9,34645
61521,34645
61521,33982.9
61421,33982.9
61421,34645
61413.1,34645
61413.1,34745
61421,34745
61421,35407.1
61358.5,35469.6
60646.2,35470.8
60597.2,35466
60550.1,35451.7
60506.6,35428.5
60468.6,35397.2
60437.3,35359.2
60414.1,35315.7
60399.8,35268.6
60395,35219.6
60395.3,35124.6
60350,35134.8
60263.1,35136.9
60177.5,35122
60096.5,35090.7
60077.5,35080.6
60064.4,34997.1
60109.3,34952.2
60089.9,34929.4
60065.8,34886.5
60057.9,34862.2
59993.7,34926.4
59910.2,34913.3
59875.1,34833.9
59856,34749.2
59853.9,34662.3
59868.8,34576.7
59900.1,34495.7
59910.2,34476.7
59993.7,34463.6
60057.9,34527.8
60065.8,34503.5
60089.9,34460.6
60109.3,34437.8
60064.4,34392.9
60077.5,34309.4
60156.9,34274.3
60241.6,34255.2
60328.5,34253.1
60395.3,34264.7
60395,34170.4
60399.8,34121.4
60414.1,34074.3
60437.3,34030.8
60468.6,33992.8
60506.6,33961.5
60550.1,33938.3
60597.2,33924
60646.2,33919.2
61358.5,33920.4
61421,33982.9
61521,33982.9
61583.5,33920.4
62250,33919.3
62250,31621.4
60998,31621.4
60998,31778.6
60967.4,31932.8
60907.2,32078
60819.9,32208.7
60708.7,32319.9
60578,32407.2
60432.8,32467.4
60278.6,32498
60121.4,32498
59967.2,32467.4
59822,32407.2
59691.3,32319.9
59580.1,32208.7
59492.8,32078
59432.6,31932.8
59402,31778.6
59402,31621.4
59432.6,31467.2
59492.8,31322
59580.1,31191.3
59691.3,31080.1
59822,30992.8
59967.2,30932.6
60121.4,30902
60278.6,30902
60432.8,30932.6
60578,30992.8
60708.7,31080.1
60819.9,31191.3
60907.2,31322
60967.4,31467.2
60998,31621.4
62250,31621.4
62250,30425.6
51571.8,30425.6
51571.8,32100.4
50028.2,32100.4
50028.2,31324.8
49725.8,31324.8
49721,31373.8
49706.7,31420.9
49683.5,31464.4
49652.2,31502.4
49614.2,31533.7
49570.7,31556.9
49523.6,31571.2
49474.6,31576
49379.6,31575.7
49389.8,31621
49391.9,31707.9
49377,31793.5
49345.7,31874.5
49335.6,31893.5
49252.1,31906.6
49207.2,31861.7
49184.4,31881.1
49141.5,31905.2
49117.2,31913.1
49181.4,31977.3
49168.3,32060.8
49088.9,32095.9
49004.2,32115
48917.3,32117.1
48831.7,32102.2
48750.7,32070.9
48731.7,32060.8
48718.6,31977.3
48782.8,31913.1
48758.5,31905.2
48715.6,31881.1
48692.8,31861.7
48647.9,31906.6
48564.4,31893.5
48529.3,31814.1
48510.2,31729.4
48508.1,31642.5
48519.7,31575.7
48425.4,31576
48376.4,31571.2
48329.3,31556.9
48285.8,31533.7
48247.8,31502.4
48216.5,31464.4
48193.3,31420.9
48179,31373.8
48174.2,31324.8
48175.4,30612.5
48237.9,30550
48900,30550
48900,30557.9
49000,30557.9
49000,30550
49662.1,30550
49724.6,30612.5
49725.8,31324.8
50028.2,31324.8
50028.2,30425.6
51571.8,30425.6
62250,30425.6
62250,29750
49725.7,29750
Z" /> 
</g>
</g>
<g style="fill:#000000; fill-opacity:1.0; 
stroke:#000000; stroke-width:100; stroke-opacity:1; 
stroke-linecap:round; stroke-linejoin:round;">
<g >
<path style="fill:#000000; fill-opacity:1.0; 
stroke:#000000; stroke-width:100; stroke-opacity:1; 
stroke-linecap:round; stroke-linejoin:round;fill-rule:evenodd;"
d="M 40750,37250
43250,37250
43250,35650
40750,35650
Z" /> 
</g>
</g>
<g style="fill:#000000; fill-opacity:1.0; 
stroke:#000000; stroke-width:100; stroke-opacity:1; 
stroke-linecap:round; stroke-linejoin:round;">
<g >
<path style="fill:#000000; fill-opacity:1.0; 
stroke:#000000; stroke-width:100; stroke-opacity:1; 
stroke-linecap:round; stroke-linejoin:round;fill-rule:evenodd;"
d="M 40750,40150
43250,40150
43250,38550
40750,38550
Z" /> 
</g>
</g>
<g style="fill:#000000; fill-opacity:1.0; 
stroke:#000000; stroke-width:100; stroke-opacity:1; 
stroke-linecap:round; stroke-linejoin:round;">
<g >
<path style="fill:#000000; fill-opacity:1.0; 
stroke:#000000; stroke-width:100; stroke-opacity:1; 
stroke-linecap:round; stroke-linejoin:round;fill-rule:evenodd;"
d="M 59750,38343.2
62250,38343.2
62250,36743.2
59750,36743.2
Z" /> 
</g>
</g>
<g style="fill:#000000; fill-opacity:1.0; 
stroke:#000000; stroke-width:100; stroke-opacity:1; 
stroke-linecap:round; stroke-linejoin:round;">
<g >
<path style="fill:#000000; fill-opacity:1.0; 
stroke:#000000; stroke-width:100; stroke-opacity:1; 
stroke-linecap:round; stroke-linejoin:round;fill-rule:evenodd;"
d="M 59750,35494.7
62250,35494.7
62250,33894.7
59750,33894.7
Z" /> 
</g>
</g>
<g style="fill:#000000; fill-opacity:1.0; 
stroke:#000000; stroke-width:100; stroke-opacity:1; 
stroke-linecap:round; stroke-linejoin:round;">
<g >
<path style="fill:#000000; fill-opacity:1.0; 
stroke:#000000; stroke-width:100; stroke-opacity:1; 
stroke-linecap:round; stroke-linejoin:round;fill-rule:evenodd;"
d="M 45350,29750
45350,32250
46950,32250
46950,29750
Z" /> 
</g>
</g>
<g style="fill:#000000; fill-opacity:1.0; 
stroke:#000000; stroke-width:100; stroke-opacity:1; 
stroke-linecap:round; stroke-linejoin:round;">
<g >
<path style="fill:#000000; fill-opacity:1.0; 
stroke:#000000; stroke-width:100; stroke-opacity:1; 
stroke-linecap:round; stroke-linejoin:round;fill-rule:evenodd;"
d="M 48200.5,29750
48200.5,32250
49800.5,32250
49800.5,29750
Z" /> 
</g>
</g>
</g>
<g style="fill:#FFFFFF; fill-opacity:1.0; 
stroke:#FFFFFF; stroke-width:100; stroke-opacity:1; 
stroke-linecap:round; stroke-linejoin:round;">
</g>
<g style="fill:#FFFFFF; fill-opacity:1.0; 
stroke:#FFFFFF; stroke-width:0; stroke-opacity:1; 
stroke-linecap:round; stroke-linejoin:round;">
<circle cx="58800" cy="34800" r="118.11" /> 
</g>
<g style="fill:#FFFFFF; fill-opacity:1.0; 
stroke:#FFFFFF; stroke-width:39.3701; stroke-opacity:1; 
stroke-linecap:round; stroke-linejoin:round;">
</g>
<g style="fill:#FFFFFF; fill-opacity:1.0; 
stroke:#FFFFFF; stroke-width:0; stroke-opacity:1; 
stroke-linecap:round; stroke-linejoin:round;">
<circle cx="56800" cy="32800" r="118.11" /> 
</g>
<g style="fill:#FFFFFF; fill-opacity:1.0; 
stroke:#FFFFFF; stroke-width:39.3701; stroke-opacity:1; 
stroke-linecap:round; stroke-linejoin:round;">
</g>
<g style="fill:#FFFFFF; fill-opacity:1.0; 
stroke:#FFFFFF; stroke-width:0; stroke-opacity:1; 
stroke-linecap:round; stroke-linejoin:round;">
<circle cx="53000" cy="39200" r="118.11" /> 
</g>
<g style="fill:#FFFFFF; fill-opacity:1.0; 
stroke:#FFFFFF; stroke-width:39.3701; stroke-opacity:1; 
stroke-linecap:round; stroke-linejoin:round;">
</g>
<g style="fill:#FFFFFF; fill-opacity:1.0; 
stroke:#FFFFFF; stroke-width:0; stroke-opacity:1; 
stroke-linecap:round; stroke-linejoin:round;">
<circle cx="53900" cy="37500" r="118.11" /> 
</g>
<g style="fill:#FFFFFF; fill-opacity:1.0; 
stroke:#FFFFFF; stroke-width:39.3701; stroke-opacity:1; 
stroke-linecap:round; stroke-linejoin:round;">
</g>
<g style="fill:#FFFFFF; fill-opacity:1.0; 
stroke:#FFFFFF; stroke-width:0; stroke-opacity:1; 
stroke-linecap:round; stroke-linejoin:round;">
<circle cx="55900" cy="38100" r="118.11" /> 
</g>
<g style="fill:#FFFFFF; fill-opacity:1.0; 
stroke:#FFFFFF; stroke-width:39.3701; stroke-opacity:1; 
stroke-linecap:round; stroke-linejoin:round;">
</g>
<g style="fill:#FFFFFF; fill-opacity:1.0; 
stroke:#FFFFFF; stroke-width:0; stroke-opacity:1; 
stroke-linecap:round; stroke-linejoin:round;">
<circle cx="57800" cy="38100" r="118.11" /> 
</g>
<g style="fill:#FFFFFF; fill-opacity:1.0; 
stroke:#FFFFFF; stroke-width:39.3701; stroke-opacity:1; 
stroke-linecap:round; stroke-linejoin:round;">
</g>
<g style="fill:#FFFFFF; fill-opacity:1.0; 
stroke:#FFFFFF; stroke-width:0; stroke-opacity:1; 
stroke-linecap:round; stroke-linejoin:round;">
<circle cx="54800" cy="34700" r="118.11" /> 
</g>
<g style="fill:#FFFFFF; fill-opacity:1.0; 
stroke:#FFFFFF; stroke-width:39.3701; stroke-opacity:1; 
stroke-linecap:round; stroke-linejoin:round;">
</g>
<g style="fill:#FFFFFF; fill-opacity:1.0; 
stroke:#FFFFFF; stroke-width:0; stroke-opacity:1; 
stroke-linecap:round; stroke-linejoin:round;">
<circle cx="51900" cy="33700" r="118.11" /> 
</g>
<g style="fill:#FFFFFF; fill-opacity:1.0; 
stroke:#FFFFFF; stroke-width:39.3701; stroke-opacity:1; 
stroke-linecap:round; stroke-linejoin:round;">
</g>
<g style="fill:#FFFFFF; fill-opacity:1.0; 
stroke:#FFFFFF; stroke-width:0; stroke-opacity:1; 
stroke-linecap:round; stroke-linejoin:round;">
<circle cx="49900" cy="35200" r="118.11" /> 
</g>
<g style="fill:#FFFFFF; fill-opacity:1.0; 
stroke:#FFFFFF; stroke-width:39.3701; stroke-opacity:1; 
stroke-linecap:round; stroke-linejoin:round;">
</g>
<g style="fill:#FFFFFF; fill-opacity:1.0; 
stroke:#FFFFFF; stroke-width:0; stroke-opacity:1; 
stroke-linecap:round; stroke-linejoin:round;">
<circle cx="48500" cy="33000" r="118.11" /> 
</g>
<g style="fill:#FFFFFF; fill-opacity:1.0; 
stroke:#FFFFFF; stroke-width:39.3701; stroke-opacity:1; 
stroke-linecap:round; stroke-linejoin:round;">
</g>
<g style="fill:#FFFFFF; fill-opacity:1.0; 
stroke:#FFFFFF; stroke-width:0; stroke-opacity:1; 
stroke-linecap:round; stroke-linejoin:round;">
<circle cx="47300" cy="34100" r="118.11" /> 
</g>
<g style="fill:#FFFFFF; fill-opacity:1.0; 
stroke:#FFFFFF; stroke-width:39.3701; stroke-opacity:1; 
stroke-linecap:round; stroke-linejoin:round;">
</g>
<g style="fill:#FFFFFF; fill-opacity:1.0; 
stroke:#FFFFFF; stroke-width:0; stroke-opacity:1; 
stroke-linecap:round; stroke-linejoin:round;">
<circle cx="44200" cy="34100" r="118.11" /> 
</g>
<g style="fill:#FFFFFF; fill-opacity:1.0; 
stroke:#FFFFFF; stroke-width:39.3701; stroke-opacity:1; 
stroke-linecap:round; stroke-linejoin:round;">
</g>
<g style="fill:#FFFFFF; fill-opacity:1.0; 
stroke:#FFFFFF; stroke-width:0; stroke-opacity:1; 
stroke-linecap:round; stroke-linejoin:round;">
<circle cx="44400" cy="39700" r="118.11" /> 
</g>
<g style="fill:#FFFFFF; fill-opacity:1.0; 
stroke:#FFFFFF; stroke-width:39.3701; stroke-opacity:1; 
stroke-linecap:round; stroke-linejoin:round;">
</g>
<g style="fill:#FFFFFF; fill-opacity:1.0; 
stroke:#FFFFFF; stroke-width:0; stroke-opacity:1; 
stroke-linecap:round; stroke-linejoin:round;">
<circle cx="47500" cy="38800" r="118.11" /> 
</g>
<g style="fill:#FFFFFF; fill-opacity:1.0; 
stroke:#FFFFFF; stroke-width:39.3701; stroke-opacity:1; 
stroke-linecap:round; stroke-linejoin:round;">
</g>
<g style="fill:#FFFFFF; fill-opacity:1.0; 
stroke:#FFFFFF; stroke-width:0; stroke-opacity:1; 
stroke-linecap:round; stroke-linejoin:round;">
<circle cx="49600" cy="38700" r="118.11" /> 
</g>
<g style="fill:#FFFFFF; fill-opacity:1.0; 
stroke:#FFFFFF; stroke-width:39.3701; stroke-opacity:1; 
stroke-linecap:round; stroke-linejoin:round;">
</g>
<g style="fill:#FFFFFF; fill-opacity:1.0; 
stroke:#FFFFFF; stroke-width:0; stroke-opacity:1; 
stroke-linecap:round; stroke-linejoin:round;">
<circle cx="47400" cy="36200" r="118.11" /> 
</g>
<g style="fill:#FFFFFF; fill-opacity:1.0; 
stroke:#FFFFFF; stroke-width:39.3701; stroke-opacity:1; 
stroke-linecap:round; stroke-linejoin:round;">
</g>
<g style="fill:#FFFFFF; fill-opacity:1.0; 
stroke:#FFFFFF; stroke-width:0; stroke-opacity:1; 
stroke-linecap:round; stroke-linejoin:round;">
<circle cx="46200" cy="39600" r="118.11" /> 
</g>
<g style="fill:#FFFFFF; fill-opacity:1.0; 
stroke:#FFFFFF; stroke-width:39.3701; stroke-opacity:1; 
stroke-linecap:round; stroke-linejoin:round;">
</g>
<g style="fill:#FFFFFF; fill-opacity:1.0; 
stroke:#FFFFFF; stroke-width:0; stroke-opacity:1; 
stroke-linecap:round; stroke-linejoin:round;">
<circle cx="42800" cy="41800" r="629.921" /> 
</g>
<g style="fill:#FFFFFF; fill-opacity:1.0; 
stroke:#FFFFFF; stroke-width:39.3701; stroke-opacity:1; 
stroke-linecap:round; stroke-linejoin:round;">
</g>
<g style="fill:#FFFFFF; fill-opacity:1.0; 
stroke:#FFFFFF; stroke-width:0; stroke-opacity:1; 
stroke-linecap:round; stroke-linejoin:round;">
<circle cx="60200" cy="41800" r="629.921" /> 
</g>
<g style="fill:#FFFFFF; fill-opacity:1.0; 
stroke:#FFFFFF; stroke-width:39.3701; stroke-opacity:1; 
stroke-linecap:round; stroke-linejoin:round;">
</g>
<g style="fill:#FFFFFF; fill-opacity:1.0; 
stroke:#FFFFFF; stroke-width:0; stroke-opacity:1; 
stroke-linecap:round; stroke-linejoin:round;">
<circle cx="60200" cy="31700" r="629.921" /> 
</g>
<g style="fill:#FFFFFF; fill-opacity:1.0; 
stroke:#FFFFFF; stroke-width:39.3701; stroke-opacity:1; 
stroke-linecap:round; stroke-linejoin:round;">
</g>
<g style="fill:#FFFFFF; fill-opacity:1.0; 
stroke:#FFFFFF; stroke-width:0; stroke-opacity:1; 
stroke-linecap:round; stroke-linejoin:round;">
<circle cx="42900" cy="31700" r="629.921" /> 
</g>
<g style="fill:#FFFFFF; fill-opacity:1.0; 
stroke:#FFFFFF; stroke-width:39.3701; stroke-opacity:1; 
stroke-linecap:round; stroke-linejoin:round;">
</g>
<g style="fill:#FFFFFF; fill-opacity:1.0; 
stroke:#FFFFFF; stroke-width:0; stroke-opacity:1; 
stroke-linecap:round; stroke-linejoin:round;">
<circle cx="46400" cy="35400" r="108.268" /> 
</g>
<g style="fill:#FFFFFF; fill-opacity:1.0; 
stroke:#FFFFFF; stroke-width:39.3701; stroke-opacity:1; 
stroke-linecap:round; stroke-linejoin:round;">
</g>
<g style="fill:#FFFFFF; fill-opacity:1.0; 
stroke:#FFFFFF; stroke-width:0; stroke-opacity:1; 
stroke-linecap:round; stroke-linejoin:round;">
<circle cx="44400" cy="35400" r="108.268" /> 
</g>
<g style="fill:#FFFFFF; fill-opacity:1.0; 
stroke:#FFFFFF; stroke-width:39.3701; stroke-opacity:1; 
stroke-linecap:round; stroke-linejoin:round;">
</g>
<g style="fill:#FFFFFF; fill-opacity:1.0; 
stroke:#FFFFFF; stroke-width:0; stroke-opacity:1; 
stroke-linecap:round; stroke-linejoin:round;">
<circle cx="46400" cy="36650" r="108.268" /> 
</g>
<g style="fill:#FFFFFF; fill-opacity:1.0; 
stroke:#FFFFFF; stroke-width:39.3701; stroke-opacity:1; 
stroke-linecap:round; stroke-linejoin:round;">
</g>
<g style="fill:#FFFFFF; fill-opacity:1.0; 
stroke:#FFFFFF; stroke-width:0; stroke-opacity:1; 
stroke-linecap:round; stroke-linejoin:round;">
<circle cx="44400" cy="36650" r="108.268" /> 
</g>
<g style="fill:#FFFFFF; fill-opacity:1.0; 
stroke:#FFFFFF; stroke-width:39.3701; stroke-opacity:1; 
stroke-linecap:round; stroke-linejoin:round;">
</g>
<g style="fill:#FFFFFF; fill-opacity:1.0; 
stroke:#FFFFFF; stroke-width:0; stroke-opacity:1; 
stroke-linecap:round; stroke-linejoin:round;">
<circle cx="46400" cy="37900" r="108.268" /> 
</g>
<g style="fill:#FFFFFF; fill-opacity:1.0; 
stroke:#FFFFFF; stroke-width:39.3701; stroke-opacity:1; 
stroke-linecap:round; stroke-linejoin:round;">
</g>
<g style="fill:#FFFFFF; fill-opacity:1.0; 
stroke:#FFFFFF; stroke-width:0; stroke-opacity:1; 
stroke-linecap:round; stroke-linejoin:round;">
<circle cx="44400" cy="37900" r="108.268" /> 
</g>
<g style="fill:#FFFFFF; fill-opacity:1.0; 
stroke:#FFFFFF; stroke-width:39.3701; stroke-opacity:1; 
stroke-linecap:round; stroke-linejoin:round;">
</g>
<g style="fill:#FFFFFF; fill-opacity:1.0; 
stroke:#FFFFFF; stroke-width:0; stroke-opacity:1; 
stroke-linecap:round; stroke-linejoin:round;">
<circle cx="51000" cy="38100" r="108.268" /> 
</g>
<g style="fill:#FFFFFF; fill-opacity:1.0; 
stroke:#FFFFFF; stroke-width:39.3701; stroke-opacity:1; 
stroke-linecap:round; stroke-linejoin:round;">
</g>
<g style="fill:#FFFFFF; fill-opacity:1.0; 
stroke:#FFFFFF; stroke-width:0; stroke-opacity:1; 
stroke-linecap:round; stroke-linejoin:round;">
<circle cx="53000" cy="38100" r="108.268" /> 
</g>
<g style="fill:#FFFFFF; fill-opacity:1.0; 
stroke:#FFFFFF; stroke-width:39.3701; stroke-opacity:1; 
stroke-linecap:round; stroke-linejoin:round;">
</g>
<g style="fill:#FFFFFF; fill-opacity:1.0; 
stroke:#FFFFFF; stroke-width:0; stroke-opacity:1; 
stroke-linecap:round; stroke-linejoin:round;">
<circle cx="51000" cy="36850" r="108.268" /> 
</g>
<g style="fill:#FFFFFF; fill-opacity:1.0; 
stroke:#FFFFFF; stroke-width:39.3701; stroke-opacity:1; 
stroke-linecap:round; stroke-linejoin:round;">
</g>
<g style="fill:#FFFFFF; fill-opacity:1.0; 
stroke:#FFFFFF; stroke-width:0; stroke-opacity:1; 
stroke-linecap:round; stroke-linejoin:round;">
<circle cx="53000" cy="36850" r="108.268" /> 
</g>
<g style="fill:#FFFFFF; fill-opacity:1.0; 
stroke:#FFFFFF; stroke-width:39.3701; stroke-opacity:1; 
stroke-linecap:round; stroke-linejoin:round;">
</g>
<g style="fill:#FFFFFF; fill-opacity:1.0; 
stroke:#FFFFFF; stroke-width:0; stroke-opacity:1; 
stroke-linecap:round; stroke-linejoin:round;">
<circle cx="51000" cy="35600" r="108.268" /> 
</g>
<g style="fill:#FFFFFF; fill-opacity:1.0; 
stroke:#FFFFFF; stroke-width:39.3701; stroke-opacity:1; 
stroke-linecap:round; stroke-linejoin:round;">
</g>
<g style="fill:#FFFFFF; fill-opacity:1.0; 
stroke:#FFFFFF; stroke-width:0; stroke-opacity:1; 
stroke-linecap:round; stroke-linejoin:round;">
<circle cx="53000" cy="35600" r="108.268" /> 
</g>
<g style="fill:#FFFFFF; fill-opacity:1.0; 
stroke:#FFFFFF; stroke-width:39.3701; stroke-opacity:1; 
stroke-linecap:round; stroke-linejoin:round;">
</g>
<g style="fill:#FFFFFF; fill-opacity:1.0; 
stroke:#FFFFFF; stroke-width:0; stroke-opacity:1; 
stroke-linecap:round; stroke-linejoin:round;">
<circle cx="42675.2" cy="39250" r="90.5512" /> 
</g>
<g style="fill:#FFFFFF; fill-opacity:1.0; 
stroke:#FFFFFF; stroke-width:39.3701; stroke-opacity:1; 
stroke-linecap:round; stroke-linejoin:round;">
</g>
<g style="fill:#FFFFFF; fill-opacity:1.0; 
stroke:#FFFFFF; stroke-width:0; stroke-opacity:1; 
stroke-linecap:round; stroke-linejoin:round;">
<circle cx="42675.2" cy="36500" r="90.5512" /> 
</g>
<g style="fill:#FFFFFF; fill-opacity:1.0; 
stroke:#FFFFFF; stroke-width:39.3701; stroke-opacity:1; 
stroke-linecap:round; stroke-linejoin:round;">
</g>
<g style="fill:#FFFFFF; fill-opacity:1.0; 
stroke:#FFFFFF; stroke-width:0; stroke-opacity:1; 
stroke-linecap:round; stroke-linejoin:round;">
<circle cx="60295.8" cy="34695" r="90.5512" /> 
</g>
<g style="fill:#FFFFFF; fill-opacity:1.0; 
stroke:#FFFFFF; stroke-width:39.3701; stroke-opacity:1; 
stroke-linecap:round; stroke-linejoin:round;">
</g>
<g style="fill:#FFFFFF; fill-opacity:1.0; 
stroke:#FFFFFF; stroke-width:0; stroke-opacity:1; 
stroke-linecap:round; stroke-linejoin:round;">
<circle cx="60295.8" cy="37445" r="90.5512" /> 
</g>
<g style="fill:#FFFFFF; fill-opacity:1.0; 
stroke:#FFFFFF; stroke-width:39.3701; stroke-opacity:1; 
stroke-linecap:round; stroke-linejoin:round;">
</g>
<g style="fill:#FFFFFF; fill-opacity:1.0; 
stroke:#FFFFFF; stroke-width:0; stroke-opacity:1; 
stroke-linecap:round; stroke-linejoin:round;">
<circle cx="46200" cy="31675.2" r="90.5512" /> 
</g>
<g style="fill:#FFFFFF; fill-opacity:1.0; 
stroke:#FFFFFF; stroke-width:39.3701; stroke-opacity:1; 
stroke-linecap:round; stroke-linejoin:round;">
</g>
<g style="fill:#FFFFFF; fill-opacity:1.0; 
stroke:#FFFFFF; stroke-width:0; stroke-opacity:1; 
stroke-linecap:round; stroke-linejoin:round;">
<circle cx="48950" cy="31675.2" r="90.5512" /> 
</g>
<g style="fill:#FFFFFF; fill-opacity:1.0; 
stroke:#FFFFFF; stroke-width:39.3701; stroke-opacity:1; 
stroke-linecap:round; stroke-linejoin:round;">
</g>
<g style="fill:#000000; fill-opacity:1.0; 
stroke:#000000; stroke-width:39.3701; stroke-opacity:1; 
stroke-linecap:round; stroke-linejoin:round;">
</g> 
</svg>
